<svg width="24" height="24" viewBox="0 0 24 24" fill="none" xmlns="http://www.w3.org/2000/svg">
	<path fill-rule="evenodd" clip-rule="evenodd" d="M19.8068 5.37072C20.4742 5.85234 20.9454 6.59094 21.0745 7.44945C21.1197 7.7503 21.1605 8.05166 21.1967 8.35342C21.4768 10.9563 21.4643 13.9581 21.0745 16.5505C20.8588 17.9849 19.6881 19.0845 18.2431 19.2101L16.7328 19.3414C13.5838 19.6151 10.4169 19.6151 7.26787 19.3414L5.75763 19.2101C4.31257 19.0845 3.1419 17.9849 2.9262 16.5505C2.53637 13.9581 2.52389 10.9562 2.80403 8.35326C2.84024 8.05155 2.88096 7.75025 2.9262 7.44945C3.05512 6.59213 3.52519 5.85438 4.1911 5.37272L4.19034 5.36599L4.23759 5.33973C4.4101 5.21966 4.59518 5.11653 4.79041 5.03261L9.20636 2.57931C10.943 1.61451 13.0546 1.61451 14.7913 2.57931L19.197 5.02695C19.4016 5.11377 19.5952 5.22167 19.7749 5.34802L19.8073 5.36602L19.8068 5.37072ZM18.9659 6.61448L14.0628 3.89054C12.7792 3.17744 11.2184 3.17744 9.93482 3.89054L5.04316 6.60814C4.70968 6.85975 4.47508 7.23651 4.40952 7.67251C4.39783 7.75028 4.38645 7.82808 4.37539 7.90592L9.93632 10.9953C11.2199 11.7084 12.7807 11.7084 14.0643 10.9953L19.6253 7.90589C19.6142 7.82806 19.6029 7.75027 19.5912 7.67251C19.5262 7.24016 19.2949 6.86606 18.9659 6.61448ZM19.7058 15.4805C19.9442 13.5015 19.9786 11.5042 19.8088 9.51987L14.7928 12.3066C13.0561 13.2714 10.9445 13.2714 9.20786 12.3066L4.19184 9.5199C4.02211 11.5042 4.05645 13.5015 4.29485 15.4805C4.32891 15.7632 4.36713 16.0456 4.40952 16.3274C4.43352 16.487 4.48015 16.6386 4.546 16.7791C4.7891 17.2977 5.29398 17.6642 5.88754 17.7158L7.39777 17.847C10.4604 18.1133 13.5403 18.1133 16.6029 17.8471L18.1132 17.7158C18.5846 17.6748 19.0001 17.4352 19.2729 17.0785C19.4366 16.8644 19.5489 16.6082 19.5912 16.3274C19.6336 16.0456 19.6718 15.7632 19.7058 15.4805Z" fill="#4A5565" />
</svg>
