<svg width="24" height="24" viewBox="0 0 24 24" fill="none" xmlns="http://www.w3.org/2000/svg">
	<path d="M19.2936 17.8824H8.46069C8.01421 17.8824 7.65234 17.5206 7.65234 17.0741C7.65234 16.6276 8.01421 16.2657 8.46069 16.2657H19.2933C19.7398 16.2657 20.1016 16.6276 20.1016 17.0741C20.1016 17.5206 19.74 17.8824 19.2936 17.8824Z" fill="#4A5565" />
	<path d="M19.2936 12.8085H8.46069C8.01421 12.8085 7.65234 12.4466 7.65234 12.0001C7.65234 11.5536 8.01421 11.1918 8.46069 11.1918H19.2933C19.7398 11.1918 20.1016 11.5536 20.1016 12.0001C20.1019 12.4466 19.74 12.8085 19.2936 12.8085Z" fill="#4A5565" />
	<path d="M19.2936 7.73448H8.46069C8.01421 7.73448 7.65234 7.37262 7.65234 6.92614C7.65234 6.47967 8.01421 6.1178 8.46069 6.1178H19.2933C19.7398 6.1178 20.1016 6.47967 20.1016 6.92614C20.1016 7.37262 19.74 7.73448 19.2936 7.73448Z" fill="#4A5565" />
	<path d="M4.986 8.07422C5.58556 8.07422 6.0716 7.58818 6.0716 6.98862C6.0716 6.38906 5.58556 5.90302 4.986 5.90302C4.38643 5.90302 3.90039 6.38906 3.90039 6.98862C3.90039 7.58818 4.38643 8.07422 4.986 8.07422Z" fill="#4A5565" />
	<path d="M4.986 13.0857C5.58556 13.0857 6.0716 12.5997 6.0716 12.0001C6.0716 11.4005 5.58556 10.9145 4.986 10.9145C4.38643 10.9145 3.90039 11.4005 3.90039 12.0001C3.90039 12.5997 4.38643 13.0857 4.986 13.0857Z" fill="#4A5565" />
	<path d="M4.986 18.0971C5.58556 18.0971 6.0716 17.6111 6.0716 17.0115C6.0716 16.4119 5.58556 15.9259 4.986 15.9259C4.38643 15.9259 3.90039 16.4119 3.90039 17.0115C3.90039 17.6111 4.38643 18.0971 4.986 18.0971Z" fill="#4A5565" />
</svg>
