<svg width="14" height="14" viewBox="0 0 14 14" fill="none" xmlns="http://www.w3.org/2000/svg">
	<path fill-rule="evenodd" clip-rule="evenodd" d="M5.55878 1.44083C5.64071 1.52286 5.68673 1.63406 5.68673 1.75C5.68673 1.86593 5.64071 1.97713 5.55878 2.05916L2.80545 4.8125H8.74962C9.79391 4.8125 10.7954 5.22734 11.5338 5.96576C12.2723 6.70419 12.6871 7.70571 12.6871 8.75C12.6871 9.79429 12.2723 10.7958 11.5338 11.5342C10.7954 12.2727 9.79391 12.6875 8.74962 12.6875H6.99962C6.88358 12.6875 6.7723 12.6414 6.69026 12.5594C6.60821 12.4773 6.56212 12.366 6.56212 12.25C6.56212 12.134 6.60821 12.0227 6.69026 11.9406C6.7723 11.8586 6.88358 11.8125 6.99962 11.8125H8.74962C9.15179 11.8125 9.55002 11.7333 9.92158 11.5794C10.2931 11.4255 10.6308 11.1999 10.9151 10.9155C11.1995 10.6311 11.4251 10.2935 11.579 9.92197C11.7329 9.55041 11.8121 9.15217 11.8121 8.75C11.8121 8.34782 11.7329 7.94959 11.579 7.57803C11.4251 7.20647 11.1995 6.86886 10.9151 6.58448C10.6308 6.3001 10.2931 6.07452 9.92158 5.92062C9.55002 5.76671 9.15179 5.6875 8.74962 5.6875H2.80545L5.55878 8.44083C5.60177 8.48088 5.63624 8.52918 5.66015 8.58285C5.68407 8.63652 5.69692 8.69445 5.69796 8.75319C5.699 8.81194 5.68819 8.87029 5.66619 8.92476C5.64418 8.97924 5.61143 9.02872 5.56989 9.07027C5.52834 9.11181 5.47886 9.14456 5.42438 9.16657C5.3699 9.18857 5.31155 9.19938 5.25281 9.19834C5.19407 9.19731 5.13613 9.18445 5.08247 9.16054C5.0288 9.13662 4.9805 9.10215 4.94045 9.05916L1.44045 5.55916C1.35852 5.47713 1.3125 5.36593 1.3125 5.25C1.3125 5.13406 1.35852 5.02286 1.44045 4.94083L4.94045 1.44083C5.02248 1.3589 5.13368 1.31288 5.24962 1.31288C5.36555 1.31288 5.47675 1.3589 5.55878 1.44083Z" fill="#4A5565" />
</svg>
