<svg width="85" height="14" viewBox="0 0 85 14" fill="none" xmlns="http://www.w3.org/2000/svg">
	<path d="M0.232 11.56V0.64H1.898V1.438H1.128V10.762H1.898V11.56H0.232ZM4.90538 11C4.25204 11 3.72938 10.8087 3.33738 10.426C2.95471 10.0433 2.76338 9.53 2.76338 8.886C2.76338 8.20467 2.96404 7.67733 3.36538 7.304C3.77604 6.92133 4.37804 6.73 5.17138 6.73H5.99738V5.19H5.17138C4.37804 5.19 3.77604 5.00333 3.36538 4.63C2.96404 4.24733 2.76338 3.71533 2.76338 3.034C2.76338 2.39 2.95471 1.87667 3.33738 1.494C3.72938 1.11133 4.25204 0.92 4.90538 0.92C5.42804 0.92 5.83871 1.018 6.13738 1.214C6.44538 1.41 6.66004 1.67133 6.78138 1.998C6.91204 2.32467 6.97738 2.684 6.97738 3.076V4.238H8.51738V3.076C8.51738 2.684 8.57804 2.32467 8.69938 1.998C8.83004 1.67133 9.04471 1.41 9.34338 1.214C9.65138 1.018 10.0667 0.92 10.5894 0.92C11.2427 0.92 11.7607 1.11133 12.1434 1.494C12.5354 1.87667 12.7314 2.39 12.7314 3.034C12.7314 3.71533 12.5307 4.24733 12.1294 4.63C11.728 5.00333 11.126 5.19 10.3234 5.19H9.49738V6.73H10.3234C11.126 6.73 11.728 6.92133 12.1294 7.304C12.5307 7.67733 12.7314 8.20467 12.7314 8.886C12.7314 9.53 12.5354 10.0433 12.1434 10.426C11.7607 10.8087 11.2427 11 10.5894 11C10.0667 11 9.65138 10.902 9.34338 10.706C9.04471 10.51 8.83004 10.2487 8.69938 9.922C8.57804 9.59533 8.51738 9.236 8.51738 8.844V7.682H6.97738V8.844C6.97738 9.236 6.91204 9.59533 6.78138 9.922C6.66004 10.2487 6.44538 10.51 6.13738 10.706C5.83871 10.902 5.42804 11 4.90538 11ZM9.49738 3.048V4.238H10.3234C10.818 4.238 11.1774 4.14 11.4014 3.944C11.6254 3.73867 11.7374 3.43533 11.7374 3.034C11.7374 2.62333 11.6254 2.32933 11.4014 2.152C11.1867 1.97467 10.916 1.886 10.5894 1.886C10.2254 1.886 9.95004 1.99333 9.76338 2.208C9.58604 2.41333 9.49738 2.69333 9.49738 3.048ZM5.17138 4.238H5.99738V3.048C5.99738 2.69333 5.90404 2.41333 5.71738 2.208C5.54004 1.99333 5.26938 1.886 4.90538 1.886C4.57871 1.886 4.30338 1.97467 4.07938 2.152C3.86471 2.32933 3.75738 2.62333 3.75738 3.034C3.75738 3.43533 3.86938 3.73867 4.09338 3.944C4.31738 4.14 4.67671 4.238 5.17138 4.238ZM6.97738 6.73H8.51738V5.19H6.97738V6.73ZM4.90538 10.034C5.26938 10.034 5.54004 9.93133 5.71738 9.726C5.90404 9.51133 5.99738 9.22667 5.99738 8.872V7.682H5.17138C4.67671 7.682 4.31738 7.78467 4.09338 7.99C3.86938 8.186 3.75738 8.48467 3.75738 8.886C3.75738 9.29667 3.86471 9.59067 4.07938 9.768C4.30338 9.94533 4.57871 10.034 4.90538 10.034ZM9.49738 8.872C9.49738 9.22667 9.58604 9.51133 9.76338 9.726C9.95004 9.93133 10.2254 10.034 10.5894 10.034C10.916 10.034 11.1867 9.94533 11.4014 9.768C11.6254 9.59067 11.7374 9.29667 11.7374 8.886C11.7374 8.48467 11.6254 8.186 11.4014 7.99C11.1774 7.78467 10.818 7.682 10.3234 7.682H9.49738V8.872ZM20.9821 5.638V6.422H19.2461V8.312H18.3641V6.422H16.6281V5.638H18.3641V3.748H19.2461V5.638H20.9821ZM27.015 11.42V5.358H24.873L28.793 1.438L32.713 5.358H30.571V11.42H27.015ZM27.435 11H30.151V4.938H31.691L28.793 2.04L25.895 4.938H27.435V11ZM40.9589 5.638V6.422H39.2229V8.312H38.3409V6.422H36.6049V5.638H38.3409V3.748H39.2229V5.638H40.9589ZM51.1918 2.922C51.0518 2.76333 50.8884 2.62333 50.7018 2.502C50.5151 2.37133 50.3051 2.25933 50.0718 2.166C49.8384 2.07267 49.5864 1.998 49.3158 1.942C49.0544 1.886 48.7744 1.858 48.4758 1.858C47.6078 1.858 46.9684 2.026 46.5578 2.362C46.1564 2.68867 45.9558 3.13667 45.9558 3.706C45.9558 4.098 46.0491 4.406 46.2358 4.63C46.4318 4.854 46.7351 5.036 47.1458 5.176C47.5564 5.316 48.0791 5.46067 48.7138 5.61C49.4231 5.75933 50.0344 5.93667 50.5478 6.142C51.0611 6.34733 51.4578 6.62733 51.7378 6.982C52.0178 7.32733 52.1578 7.79867 52.1578 8.396C52.1578 8.85333 52.0691 9.25 51.8918 9.586C51.7144 9.922 51.4671 10.202 51.1498 10.426C50.8324 10.65 50.4544 10.818 50.0158 10.93C49.5771 11.0327 49.0964 11.084 48.5738 11.084C48.0604 11.084 47.5658 11.0327 47.0898 10.93C46.6231 10.818 46.1798 10.6593 45.7598 10.454C45.3398 10.2393 44.9478 9.96867 44.5838 9.642L45.0738 8.844C45.2511 9.03067 45.4611 9.208 45.7038 9.376C45.9558 9.53467 46.2311 9.67933 46.5298 9.81C46.8378 9.94067 47.1644 10.0433 47.5098 10.118C47.8644 10.1833 48.2284 10.216 48.6018 10.216C49.3951 10.216 50.0111 10.0713 50.4498 9.782C50.8978 9.49267 51.1218 9.06333 51.1218 8.494C51.1218 8.08333 51.0098 7.75667 50.7858 7.514C50.5618 7.262 50.2258 7.05667 49.7778 6.898C49.3298 6.73933 48.7791 6.58533 48.1258 6.436C47.4351 6.27733 46.8518 6.1 46.3758 5.904C45.8998 5.708 45.5404 5.45133 45.2978 5.134C45.0644 4.80733 44.9478 4.378 44.9478 3.846C44.9478 3.23 45.0971 2.712 45.3958 2.292C45.7038 1.86267 46.1238 1.54067 46.6558 1.326C47.1878 1.102 47.7991 0.99 48.4898 0.99C48.9284 0.99 49.3344 1.03667 49.7078 1.13C50.0904 1.214 50.4404 1.34 50.7578 1.508C51.0844 1.676 51.3878 1.886 51.6678 2.138L51.1918 2.922ZM56.8537 11.14C56.247 11.14 55.701 10.9813 55.2157 10.664C54.7397 10.3467 54.3617 9.95467 54.0817 9.488V13.982H53.1297V3.706H53.9837V5.12C54.273 4.66267 54.6604 4.294 55.1457 4.014C55.631 3.72467 56.149 3.58 56.6997 3.58C57.2037 3.58 57.6657 3.68733 58.0857 3.902C58.5057 4.10733 58.8697 4.38733 59.1777 4.742C59.4857 5.09667 59.7237 5.50267 59.8917 5.96C60.069 6.408 60.1577 6.87467 60.1577 7.36C60.1577 8.04133 60.0177 8.67133 59.7377 9.25C59.467 9.81933 59.0844 10.2767 58.5897 10.622C58.095 10.9673 57.5164 11.14 56.8537 11.14ZM56.5877 10.3C56.989 10.3 57.3484 10.2207 57.6657 10.062C57.983 9.894 58.2537 9.67 58.4777 9.39C58.711 9.11 58.8884 8.79733 59.0097 8.452C59.131 8.09733 59.1917 7.73333 59.1917 7.36C59.1917 6.968 59.1217 6.59467 58.9817 6.24C58.851 5.88533 58.6597 5.57267 58.4077 5.302C58.1557 5.03133 57.8664 4.81667 57.5397 4.658C57.213 4.49933 56.8584 4.42 56.4757 4.42C56.233 4.42 55.981 4.46667 55.7197 4.56C55.4584 4.65333 55.2064 4.78867 54.9637 4.966C54.7304 5.134 54.5344 5.32533 54.3757 5.54C54.217 5.75467 54.119 5.98333 54.0817 6.226V8.466C54.231 8.81133 54.4317 9.124 54.6837 9.404C54.9357 9.67467 55.225 9.894 55.5517 10.062C55.8877 10.2207 56.233 10.3 56.5877 10.3ZM60.6223 8.9C60.6223 8.44267 60.753 8.05067 61.0143 7.724C61.2756 7.388 61.635 7.13133 62.0923 6.954C62.559 6.76733 63.0956 6.674 63.7023 6.674C64.057 6.674 64.4256 6.702 64.8083 6.758C65.191 6.814 65.5316 6.898 65.8303 7.01V6.394C65.8303 5.778 65.6483 5.288 65.2843 4.924C64.9203 4.56 64.4163 4.378 63.7723 4.378C63.3803 4.378 62.993 4.45267 62.6103 4.602C62.237 4.742 61.845 4.952 61.4343 5.232L61.0703 4.56C61.5463 4.23333 62.013 3.99067 62.4703 3.832C62.9276 3.664 63.3943 3.58 63.8703 3.58C64.7663 3.58 65.4756 3.83667 65.9983 4.35C66.521 4.86333 66.7823 5.57267 66.7823 6.478V9.852C66.7823 9.98267 66.8103 10.0807 66.8663 10.146C66.9223 10.202 67.011 10.2347 67.1323 10.244V11C67.0296 11.0093 66.941 11.0187 66.8663 11.028C66.7916 11.0373 66.7356 11.0373 66.6983 11.028C66.465 11.0187 66.2876 10.944 66.1663 10.804C66.045 10.664 65.9796 10.5147 65.9703 10.356L65.9563 9.824C65.6296 10.244 65.205 10.5707 64.6823 10.804C64.1596 11.028 63.6276 11.14 63.0863 11.14C62.6196 11.14 62.195 11.042 61.8123 10.846C61.439 10.6407 61.145 10.37 60.9303 10.034C60.725 9.68867 60.6223 9.31067 60.6223 8.9ZM65.5083 9.46C65.611 9.32933 65.6903 9.20333 65.7463 9.082C65.8023 8.96067 65.8303 8.85333 65.8303 8.76V7.696C65.513 7.57467 65.1816 7.48133 64.8363 7.416C64.5003 7.35067 64.1596 7.318 63.8143 7.318C63.133 7.318 62.5823 7.45333 62.1623 7.724C61.7423 7.99467 61.5323 8.36333 61.5323 8.83C61.5323 9.10067 61.6023 9.35733 61.7423 9.6C61.8823 9.83333 62.0876 10.0293 62.3583 10.188C62.629 10.3373 62.9463 10.412 63.3103 10.412C63.7676 10.412 64.1923 10.3233 64.5843 10.146C64.9856 9.96867 65.2936 9.74 65.5083 9.46ZM71.4432 11.14C70.9112 11.14 70.4212 11.042 69.9732 10.846C69.5346 10.6407 69.1472 10.3607 68.8112 10.006C68.4846 9.65133 68.2279 9.24533 68.0412 8.788C67.8639 8.33067 67.7752 7.84533 67.7752 7.332C67.7752 6.64133 67.9292 6.01133 68.2372 5.442C68.5452 4.87267 68.9746 4.42 69.5252 4.084C70.0759 3.748 70.7106 3.58 71.4292 3.58C72.1106 3.58 72.7126 3.73867 73.2352 4.056C73.7579 4.364 74.1452 4.784 74.3972 5.316L73.4732 5.61C73.2679 5.23667 72.9786 4.94733 72.6052 4.742C72.2412 4.52733 71.8352 4.42 71.3872 4.42C70.9019 4.42 70.4586 4.546 70.0572 4.798C69.6559 5.05 69.3339 5.39533 69.0912 5.834C68.8579 6.27267 68.7412 6.772 68.7412 7.332C68.7412 7.88267 68.8626 8.382 69.1052 8.83C69.3479 9.278 69.6699 9.63733 70.0712 9.908C70.4726 10.1693 70.9159 10.3 71.4012 10.3C71.7186 10.3 72.0219 10.244 72.3112 10.132C72.6099 10.02 72.8666 9.87067 73.0812 9.684C73.3052 9.488 73.4546 9.278 73.5292 9.054L74.4672 9.334C74.3366 9.67933 74.1172 9.992 73.8092 10.272C73.5106 10.5427 73.1559 10.7573 72.7452 10.916C72.3439 11.0653 71.9099 11.14 71.4432 11.14ZM78.4845 11.14C77.9618 11.14 77.4765 11.042 77.0285 10.846C76.5805 10.6407 76.1931 10.3653 75.8665 10.02C75.5398 9.66533 75.2831 9.25933 75.0965 8.802C74.9191 8.34467 74.8305 7.85467 74.8305 7.332C74.8305 6.65067 74.9845 6.02533 75.2925 5.456C75.6098 4.88667 76.0438 4.434 76.5945 4.098C77.1451 3.75267 77.7705 3.58 78.4705 3.58C79.1891 3.58 79.8145 3.75267 80.3465 4.098C80.8878 4.44333 81.3125 4.90067 81.6205 5.47C81.9285 6.03 82.0825 6.646 82.0825 7.318C82.0825 7.39267 82.0825 7.46733 82.0825 7.542C82.0825 7.60733 82.0778 7.65867 82.0685 7.696H75.8245C75.8711 8.21867 76.0158 8.68533 76.2585 9.096C76.5105 9.49733 76.8325 9.81933 77.2245 10.062C77.6258 10.2953 78.0598 10.412 78.5265 10.412C79.0025 10.412 79.4505 10.2907 79.8705 10.048C80.2998 9.80533 80.5985 9.488 80.7665 9.096L81.5925 9.32C81.4431 9.66533 81.2145 9.978 80.9065 10.258C80.5985 10.538 80.2345 10.7573 79.8145 10.916C79.4038 11.0653 78.9605 11.14 78.4845 11.14ZM75.7965 7.01H81.1865C81.1491 6.478 81.0045 6.01133 80.7525 5.61C80.5098 5.20867 80.1878 4.896 79.7865 4.672C79.3945 4.43867 78.9605 4.322 78.4845 4.322C78.0085 4.322 77.5745 4.43867 77.1825 4.672C76.7905 4.896 76.4685 5.21333 76.2165 5.624C75.9738 6.02533 75.8338 6.48733 75.7965 7.01ZM82.6413 11.56V10.762H83.4253V1.438H82.6413V0.64H84.3213V11.56H82.6413Z" fill="#D1D5DC" />
</svg>
