<svg width="21" height="20" viewBox="0 0 21 20" fill="none" xmlns="http://www.w3.org/2000/svg">
	<path d="M7.99967 2.70831C5.35331 2.70831 3.20801 4.85361 3.20801 7.49998V13.4224C3.20801 13.7675 3.48783 14.0474 3.83301 14.0474C4.17819 14.0474 4.45801 13.7675 4.45801 13.4224V7.49998C4.45801 5.54397 6.04367 3.95831 7.99967 3.95831H13.8437C14.1889 3.95831 14.4687 3.67849 14.4687 3.33331C14.4687 2.98814 14.1889 2.70831 13.8437 2.70831H7.99967Z" fill="#364153" />
	<path fill-rule="evenodd" clip-rule="evenodd" d="M15.8351 5.66103C13.1343 5.35918 10.365 5.35918 7.66424 5.66103C6.89484 5.74702 6.27656 6.35252 6.18588 7.12788C5.86556 9.86661 5.86556 12.6333 6.18588 15.3721C6.27656 16.1474 6.89484 16.7529 7.66424 16.8389C10.365 17.1408 13.1343 17.1408 15.8351 16.8389C16.6045 16.7529 17.2228 16.1474 17.3135 15.3721C17.6338 12.6333 17.6338 9.86661 17.3135 7.12788C17.2228 6.35252 16.6045 5.74702 15.8351 5.66103ZM7.80308 6.90329C10.4116 6.61175 13.0878 6.61175 15.6963 6.90329C15.8941 6.9254 16.0496 7.08182 16.072 7.27309C16.381 9.91534 16.381 12.5846 16.072 15.2269C16.0496 15.4181 15.8941 15.5746 15.6963 15.5967C13.0878 15.8882 10.4116 15.8882 7.80308 15.5967C7.60529 15.5746 7.44979 15.4181 7.42742 15.2269C7.11838 12.5846 7.11838 9.91534 7.42742 7.27309C7.44979 7.08182 7.60529 6.9254 7.80308 6.90329Z" fill="#364153" />
</svg>
