<svg width="22" height="22" viewBox="0 0 22 22" fill="none" xmlns="http://www.w3.org/2000/svg">
	<rect x="0.85" y="0.85" width="20.3" height="20.3" rx="4.15" fill="white" />
	<rect x="0.85" y="0.85" width="20.3" height="20.3" rx="4.15" stroke="#D1D5DC" stroke-width="0.3" />
	<g clip-path="url(#clip0_2047_206)">
		<path d="M11.0001 5.67578C7.93069 5.67578 5.44458 8.12023 5.44458 11.135C5.44458 13.5475 7.03625 15.5934 9.24319 16.3147C9.52097 16.3661 9.62282 16.1971 9.62282 16.0522C9.62282 15.9225 9.61819 15.579 9.61588 15.1239C8.07051 15.4531 7.74458 14.3915 7.74458 14.3915C7.4918 13.7614 7.12652 13.5929 7.12652 13.5929C6.62328 13.2545 7.16541 13.2614 7.16541 13.2614C7.72328 13.2994 8.01634 13.8239 8.01634 13.8239C8.51171 14.6587 9.3168 14.4174 9.63439 14.2781C9.68439 13.9249 9.82745 13.6846 9.98625 13.548C8.75245 13.4114 7.45569 12.942 7.45569 10.8503C7.45569 10.2545 7.67097 9.76745 8.02745 9.3855C7.96495 9.24754 7.77745 8.69245 8.07606 7.9406C8.07606 7.9406 8.54134 7.7943 9.60384 8.50032C10.0483 8.37902 10.5205 8.31884 10.9927 8.31606C11.465 8.31884 11.9372 8.37902 12.3816 8.50032C13.4372 7.7943 13.9024 7.9406 13.9024 7.9406C14.2011 8.69245 14.0136 9.24754 13.958 9.3855C14.3122 9.76745 14.5275 10.2545 14.5275 10.8503C14.5275 12.9475 13.2288 13.4091 11.9927 13.5434C12.1872 13.7073 12.3677 14.042 12.3677 14.5536C12.3677 15.2841 12.3608 15.8712 12.3608 16.0485C12.3608 16.1915 12.458 16.3624 12.7427 16.3077C14.9654 15.5911 16.5557 13.5438 16.5557 11.135C16.5557 8.12023 14.0682 5.67578 11.0001 5.67578Z" fill="#62748E" />
	</g>
	<defs>
		<clipPath id="clip0_2047_206">
			<rect width="11.1111" height="11.1111" fill="white" transform="translate(5.44458 5.44434)" />
		</clipPath>
	</defs>
</svg>
