<svg width="16" height="16" viewBox="0 0 16 16" fill="none" xmlns="http://www.w3.org/2000/svg">
	<path d="M4.66658 6.66667C3.93021 6.66667 3.33325 7.26363 3.33325 8C3.33325 8.73638 3.93021 9.33334 4.66658 9.33334C5.40296 9.33334 5.99992 8.73638 5.99992 8C5.99992 7.26363 5.40296 6.66667 4.66658 6.66667Z" fill="#1E2939" />
	<path fill-rule="evenodd" clip-rule="evenodd" d="M4.66658 4.16667C2.54949 4.16667 0.833252 5.88291 0.833252 8C0.833252 10.1171 2.54949 11.8333 4.66658 11.8333C6.1203 11.8333 7.38408 11.0242 8.03379 9.83334H10.1666V11.3333C10.1666 11.6095 10.3904 11.8333 10.6666 11.8333H12.9999C13.2761 11.8333 13.4999 11.6095 13.4999 11.3333V9.83334H14.6666C14.9427 9.83334 15.1666 9.60948 15.1666 9.33334V7.33334C15.1666 6.68901 14.6442 6.16667 13.9999 6.16667H8.03379C7.38408 4.97581 6.1203 4.16667 4.66658 4.16667ZM1.83325 8C1.83325 6.4352 3.10178 5.16667 4.66658 5.16667C5.82766 5.16667 6.82671 5.86513 7.26438 6.86686C7.34395 7.04897 7.52382 7.16667 7.72256 7.16667H13.9999C14.092 7.16667 14.1666 7.24129 14.1666 7.33334V8.83334H12.9999C12.7238 8.83334 12.4999 9.0572 12.4999 9.33334V10.8333H11.1666V9.33334C11.1666 9.0572 10.9427 8.83334 10.6666 8.83334H7.72256C7.52382 8.83334 7.34395 8.95104 7.26438 9.13315C6.82671 10.1349 5.82766 10.8333 4.66658 10.8333C3.10178 10.8333 1.83325 9.56481 1.83325 8Z" fill="#1E2939" />
</svg>
