<svg width="12" height="12" viewBox="0 0 12 12" fill="none" xmlns="http://www.w3.org/2000/svg">
	<path d="M11 6C11 4.9199 10.6502 3.86884 10.0031 3.00409C9.35589 2.13935 8.44609 1.50742 7.40981 1.20287C6.37354 0.898325 5.2665 0.93753 4.25437 1.31462C3.24223 1.69172 2.37941 2.38642 1.79503 3.29478C1.21065 4.20314 0.936119 5.27631 1.01253 6.3537C1.08893 7.4311 1.51217 8.45479 2.2189 9.27158C2.92562 10.0884 3.87785 10.6544 4.93307 10.8848C5.9883 11.1153 7.08978 10.9979 8.07271 10.5502L7.6175 9.55085C6.85045 9.90026 5.99087 9.9919 5.16739 9.81204C4.34391 9.63218 3.60082 9.19049 3.0493 8.55308C2.49778 7.91567 2.1675 7.1168 2.10787 6.27602C2.04824 5.43524 2.26248 4.59776 2.71852 3.8889C3.17456 3.18003 3.84789 2.6379 4.63774 2.34362C5.42759 2.04935 6.2915 2.01875 7.10019 2.25641C7.90888 2.49408 8.61887 2.98722 9.12392 3.66205C9.62896 4.33688 9.90191 5.15711 9.90191 6H11Z" fill="url(#paint0_linear_239_3633)" />
	<defs>
		<linearGradient id="paint0_linear_239_3633" x1="10" y1="4.5" x2="4.5" y2="12.5" gradientUnits="userSpaceOnUse">
			<stop stop-color="#45556C" />
			<stop offset="1" stop-color="#45556C" stop-opacity="0.1" />
		</linearGradient>
	</defs>
</svg>
