<svg width="72" height="25" viewBox="0 0 72 25" fill="none" xmlns="http://www.w3.org/2000/svg">
	<mask id="path-1-outside-1_41_675" maskUnits="userSpaceOnUse" x="0.25528" y="4" width="71" height="21" fill="black">
		<rect fill="white" x="0.25528" y="4" width="71" height="21" />
		<path d="M18.3353 5.96C18.5086 5.96 18.6553 6.01333 18.7753 6.12C18.9086 6.21333 18.9753 6.36 18.9753 6.56C18.9753 6.62667 18.9619 6.71333 18.9353 6.82L14.5153 19.62C14.4753 19.74 14.4019 19.8333 14.2953 19.9C14.1886 19.9667 14.0819 20 13.9753 20C13.8419 20 13.7219 19.9733 13.6153 19.92C13.5086 19.8533 13.4286 19.7533 13.3753 19.62L9.83528 10.86L9.99528 10.9L6.45528 19.62C6.40195 19.7533 6.31528 19.8533 6.19528 19.92C6.08861 19.9733 5.97528 20 5.85528 20C5.74861 20 5.64195 19.9667 5.53528 19.9C5.44195 19.8333 5.37528 19.74 5.33528 19.62L0.91528 6.82C0.87528 6.71333 0.85528 6.63333 0.85528 6.58C0.85528 6.38 0.928613 6.22667 1.07528 6.12C1.22195 6.01333 1.36861 5.96 1.51528 5.96C1.64861 5.96 1.76861 5.99333 1.87528 6.06C1.98195 6.12667 2.05528 6.22 2.09528 6.34L6.11528 18.06L5.89528 18.08L9.37528 9.4C9.41528 9.28 9.48195 9.18667 9.57528 9.12C9.68195 9.04 9.80195 9.00667 9.93528 9.02C10.0686 9.00667 10.1819 9.04 10.2753 9.12C10.3819 9.18667 10.4619 9.28 10.5153 9.4L13.9553 18.04L13.7353 18.12L17.7353 6.34C17.7753 6.22 17.8486 6.12667 17.9553 6.06C18.0619 5.99333 18.1886 5.96 18.3353 5.96ZM25.0117 9.7C25.8517 9.7 26.5317 9.88 27.0517 10.24C27.5717 10.6 27.9517 11.0867 28.1917 11.7C28.445 12.3133 28.5717 12.9933 28.5717 13.74V19.4C28.5717 19.56 28.5117 19.7 28.3917 19.82C28.2717 19.94 28.1317 20 27.9717 20C27.785 20 27.6384 19.94 27.5317 19.82C27.425 19.7 27.3717 19.56 27.3717 19.4V13.74C27.3717 13.1933 27.285 12.7 27.1117 12.26C26.9517 11.82 26.685 11.4733 26.3117 11.22C25.9384 10.9533 25.4384 10.82 24.8117 10.82C24.2517 10.82 23.7184 10.9533 23.2117 11.22C22.7184 11.4733 22.3184 11.82 22.0117 12.26C21.705 12.7 21.5517 13.1933 21.5517 13.74V19.4C21.5517 19.56 21.4917 19.7 21.3717 19.82C21.2517 19.94 21.1117 20 20.9517 20C20.765 20 20.6184 19.94 20.5117 19.82C20.405 19.7 20.3517 19.56 20.3517 19.4V5.8C20.3517 5.64 20.405 5.5 20.5117 5.38C20.6317 5.26 20.7784 5.2 20.9517 5.2C21.125 5.2 21.265 5.26 21.3717 5.38C21.4917 5.5 21.5517 5.64 21.5517 5.8V12.28L21.0917 12.98C21.1184 12.5667 21.245 12.1667 21.4717 11.78C21.7117 11.38 22.0184 11.0267 22.3917 10.72C22.765 10.4 23.1784 10.1533 23.6317 9.98C24.085 9.79333 24.545 9.7 25.0117 9.7ZM32.0789 19.4C32.0789 19.56 32.0189 19.7 31.8989 19.82C31.7789 19.94 31.6389 20 31.4789 20C31.3055 20 31.1589 19.94 31.0389 19.82C30.9322 19.7 30.8789 19.56 30.8789 19.4V10.2C30.8789 10.04 30.9322 9.9 31.0389 9.78C31.1589 9.66 31.3055 9.6 31.4789 9.6C31.6522 9.6 31.7922 9.66 31.8989 9.78C32.0189 9.9 32.0789 10.04 32.0789 10.2V19.4ZM31.4789 8.26C31.1989 8.26 30.9855 8.2 30.8389 8.08C30.7055 7.94667 30.6389 7.76 30.6389 7.52V7.32C30.6389 7.08 30.7122 6.9 30.8589 6.78C31.0189 6.64667 31.2322 6.58 31.4989 6.58C31.7522 6.58 31.9455 6.64667 32.0789 6.78C32.2255 6.9 32.2989 7.08 32.2989 7.32V7.52C32.2989 7.76 32.2255 7.94667 32.0789 8.08C31.9455 8.2 31.7455 8.26 31.4789 8.26ZM33.8162 18.38C33.7095 18.22 33.6562 18.0667 33.6562 17.92C33.6695 17.76 33.7562 17.6333 33.9162 17.54C34.0229 17.4467 34.1429 17.4067 34.2762 17.42C34.4229 17.4333 34.5562 17.5 34.6762 17.62C35.0362 18.0867 35.4695 18.4667 35.9762 18.76C36.4962 19.04 37.1095 19.18 37.8162 19.18C38.1895 19.18 38.5562 19.12 38.9162 19C39.2895 18.8667 39.5962 18.6733 39.8362 18.42C40.0762 18.1533 40.1962 17.82 40.1962 17.42C40.1962 17.0067 40.0762 16.6733 39.8362 16.42C39.5962 16.1667 39.2829 15.9667 38.8962 15.82C38.5229 15.6733 38.1229 15.5467 37.6962 15.44C37.2429 15.32 36.8029 15.1867 36.3762 15.04C35.9495 14.88 35.5695 14.6867 35.2362 14.46C34.9162 14.22 34.6562 13.9333 34.4562 13.6C34.2562 13.2667 34.1562 12.86 34.1562 12.38C34.1562 11.82 34.3095 11.3267 34.6162 10.9C34.9229 10.4733 35.3362 10.14 35.8562 9.9C36.3895 9.66 36.9895 9.54 37.6562 9.54C37.9895 9.54 38.3495 9.58667 38.7362 9.68C39.1229 9.76 39.5029 9.9 39.8762 10.1C40.2495 10.3 40.5829 10.5733 40.8762 10.92C40.9962 11.04 41.0562 11.18 41.0562 11.34C41.0562 11.4867 40.9895 11.62 40.8562 11.74C40.7495 11.82 40.6229 11.86 40.4762 11.86C40.3429 11.86 40.2295 11.8067 40.1362 11.7C39.8162 11.34 39.4362 11.0667 38.9962 10.88C38.5562 10.6933 38.0829 10.6 37.5762 10.6C37.1895 10.6 36.8229 10.6667 36.4762 10.8C36.1429 10.92 35.8629 11.1067 35.6362 11.36C35.4095 11.6133 35.2962 11.9467 35.2962 12.36C35.3229 12.7467 35.4562 13.06 35.6962 13.3C35.9495 13.54 36.2762 13.74 36.6762 13.9C37.0895 14.06 37.5495 14.2067 38.0562 14.34C38.4829 14.4467 38.8895 14.5733 39.2762 14.72C39.6762 14.8667 40.0229 15.0533 40.3162 15.28C40.6229 15.4933 40.8629 15.7667 41.0362 16.1C41.2229 16.4333 41.3162 16.8533 41.3162 17.36C41.3162 17.9467 41.1495 18.4533 40.8162 18.88C40.4962 19.3067 40.0629 19.6333 39.5162 19.86C38.9695 20.0867 38.3629 20.2 37.6962 20.2C36.9762 20.2 36.2762 20.06 35.5962 19.78C34.9295 19.5 34.3362 19.0333 33.8162 18.38ZM47.8312 9.7C48.7379 9.7 49.5379 9.92667 50.2312 10.38C50.9379 10.82 51.4979 11.4333 51.9112 12.22C52.3246 12.9933 52.5312 13.8867 52.5312 14.9C52.5312 15.9133 52.3246 16.8133 51.9112 17.6C51.4979 18.3867 50.9379 19.0067 50.2312 19.46C49.5246 19.9133 48.7312 20.14 47.8512 20.14C47.3845 20.14 46.9379 20.0733 46.5112 19.94C46.0979 19.7933 45.7179 19.6 45.3712 19.36C45.0245 19.12 44.7179 18.84 44.4512 18.52C44.1845 18.1867 43.9712 17.8267 43.8112 17.44L44.1712 17.18V23.4C44.1712 23.56 44.1112 23.7 43.9912 23.82C43.8845 23.94 43.7445 24 43.5712 24C43.3979 24 43.2512 23.94 43.1312 23.82C43.0245 23.7 42.9712 23.56 42.9712 23.4V10.36C42.9712 10.1867 43.0245 10.04 43.1312 9.92C43.2379 9.8 43.3845 9.74 43.5712 9.74C43.7445 9.74 43.8845 9.8 43.9912 9.92C44.1112 10.04 44.1712 10.1867 44.1712 10.36V12.52L43.8912 12.36C44.0245 11.9467 44.2179 11.58 44.4712 11.26C44.7379 10.9267 45.0445 10.6467 45.3912 10.42C45.7379 10.18 46.1179 10 46.5312 9.88C46.9445 9.76 47.3779 9.7 47.8312 9.7ZM47.7312 10.82C47.0112 10.82 46.3779 11 45.8312 11.36C45.2845 11.7067 44.8512 12.1867 44.5312 12.8C44.2245 13.4 44.0712 14.1 44.0712 14.9C44.0712 15.6867 44.2245 16.3933 44.5312 17.02C44.8512 17.6467 45.2845 18.14 45.8312 18.5C46.3779 18.8467 47.0112 19.02 47.7312 19.02C48.4379 19.02 49.0579 18.8467 49.5912 18.5C50.1379 18.14 50.5712 17.6467 50.8912 17.02C51.2112 16.3933 51.3712 15.6867 51.3712 14.9C51.3712 14.1133 51.2112 13.4133 50.8912 12.8C50.5712 12.1867 50.1379 11.7067 49.5912 11.36C49.0579 11 48.4379 10.82 47.7312 10.82ZM58.9201 20.2C57.8935 20.2 56.9868 19.98 56.2001 19.54C55.4135 19.1 54.8001 18.4867 54.3601 17.7C53.9201 16.9133 53.7001 15.9933 53.7001 14.94C53.7001 13.8067 53.9201 12.84 54.3601 12.04C54.8135 11.24 55.3935 10.6267 56.1001 10.2C56.8201 9.76 57.5801 9.54 58.3801 9.54C58.9668 9.54 59.5335 9.64667 60.0801 9.86C60.6401 10.06 61.1335 10.3667 61.5601 10.78C62.0001 11.18 62.3468 11.6733 62.6001 12.26C62.8668 12.8467 63.0135 13.5267 63.0401 14.3C63.0268 14.46 62.9601 14.6 62.8401 14.72C62.7201 14.8267 62.5801 14.88 62.4201 14.88H54.4001L54.1601 13.8H62.0401L61.7801 14.04V13.64C61.7268 13.0133 61.5268 12.48 61.1801 12.04C60.8335 11.6 60.4135 11.2667 59.9201 11.04C59.4268 10.8133 58.9135 10.7 58.3801 10.7C57.9801 10.7 57.5668 10.78 57.1401 10.94C56.7268 11.1 56.3468 11.3533 56.0001 11.7C55.6668 12.0333 55.3935 12.4667 55.1801 13C54.9668 13.52 54.8601 14.14 54.8601 14.86C54.8601 15.6467 55.0201 16.36 55.3401 17C55.6601 17.64 56.1201 18.1467 56.7201 18.52C57.3335 18.8933 58.0601 19.08 58.9001 19.08C59.3668 19.08 59.7868 19.0133 60.1601 18.88C60.5335 18.7467 60.8601 18.5733 61.1401 18.36C61.4201 18.1333 61.6535 17.9 61.8401 17.66C61.9868 17.54 62.1335 17.48 62.2801 17.48C62.4135 17.48 62.5268 17.5333 62.6201 17.64C62.7268 17.7467 62.7801 17.8667 62.7801 18C62.7801 18.16 62.7135 18.3 62.5801 18.42C62.1801 18.9 61.6601 19.32 61.0201 19.68C60.3801 20.0267 59.6801 20.2 58.9201 20.2ZM65.4087 20C65.2221 20 65.0754 19.94 64.9687 19.82C64.8621 19.7 64.8087 19.56 64.8087 19.4V10.44C64.8087 10.28 64.8621 10.14 64.9687 10.02C65.0887 9.9 65.2354 9.84 65.4087 9.84C65.5821 9.84 65.7221 9.9 65.8287 10.02C65.9487 10.14 66.0087 10.28 66.0087 10.44V13.44L65.7087 13.5C65.7487 13.0333 65.8621 12.5733 66.0487 12.12C66.2487 11.6533 66.5154 11.2267 66.8487 10.84C67.1821 10.4533 67.5754 10.14 68.0287 9.9C68.4954 9.66 69.0154 9.54 69.5887 9.54C69.8287 9.54 70.0621 9.59333 70.2887 9.7C70.5154 9.79333 70.6287 9.95333 70.6287 10.18C70.6287 10.38 70.5754 10.5333 70.4687 10.64C70.3621 10.7467 70.2354 10.8 70.0887 10.8C69.9687 10.8 69.8354 10.7667 69.6887 10.7C69.5554 10.6333 69.3754 10.6 69.1487 10.6C68.7754 10.6 68.4021 10.7133 68.0287 10.94C67.6554 11.1533 67.3154 11.4467 67.0087 11.82C66.7021 12.1933 66.4554 12.6133 66.2687 13.08C66.0954 13.5333 66.0087 13.9933 66.0087 14.46V19.4C66.0087 19.56 65.9487 19.7 65.8287 19.82C65.7087 19.94 65.5687 20 65.4087 20Z" />
	</mask>
	<path d="M18.3353 5.96C18.5086 5.96 18.6553 6.01333 18.7753 6.12C18.9086 6.21333 18.9753 6.36 18.9753 6.56C18.9753 6.62667 18.9619 6.71333 18.9353 6.82L14.5153 19.62C14.4753 19.74 14.4019 19.8333 14.2953 19.9C14.1886 19.9667 14.0819 20 13.9753 20C13.8419 20 13.7219 19.9733 13.6153 19.92C13.5086 19.8533 13.4286 19.7533 13.3753 19.62L9.83528 10.86L9.99528 10.9L6.45528 19.62C6.40195 19.7533 6.31528 19.8533 6.19528 19.92C6.08861 19.9733 5.97528 20 5.85528 20C5.74861 20 5.64195 19.9667 5.53528 19.9C5.44195 19.8333 5.37528 19.74 5.33528 19.62L0.91528 6.82C0.87528 6.71333 0.85528 6.63333 0.85528 6.58C0.85528 6.38 0.928613 6.22667 1.07528 6.12C1.22195 6.01333 1.36861 5.96 1.51528 5.96C1.64861 5.96 1.76861 5.99333 1.87528 6.06C1.98195 6.12667 2.05528 6.22 2.09528 6.34L6.11528 18.06L5.89528 18.08L9.37528 9.4C9.41528 9.28 9.48195 9.18667 9.57528 9.12C9.68195 9.04 9.80195 9.00667 9.93528 9.02C10.0686 9.00667 10.1819 9.04 10.2753 9.12C10.3819 9.18667 10.4619 9.28 10.5153 9.4L13.9553 18.04L13.7353 18.12L17.7353 6.34C17.7753 6.22 17.8486 6.12667 17.9553 6.06C18.0619 5.99333 18.1886 5.96 18.3353 5.96ZM25.0117 9.7C25.8517 9.7 26.5317 9.88 27.0517 10.24C27.5717 10.6 27.9517 11.0867 28.1917 11.7C28.445 12.3133 28.5717 12.9933 28.5717 13.74V19.4C28.5717 19.56 28.5117 19.7 28.3917 19.82C28.2717 19.94 28.1317 20 27.9717 20C27.785 20 27.6384 19.94 27.5317 19.82C27.425 19.7 27.3717 19.56 27.3717 19.4V13.74C27.3717 13.1933 27.285 12.7 27.1117 12.26C26.9517 11.82 26.685 11.4733 26.3117 11.22C25.9384 10.9533 25.4384 10.82 24.8117 10.82C24.2517 10.82 23.7184 10.9533 23.2117 11.22C22.7184 11.4733 22.3184 11.82 22.0117 12.26C21.705 12.7 21.5517 13.1933 21.5517 13.74V19.4C21.5517 19.56 21.4917 19.7 21.3717 19.82C21.2517 19.94 21.1117 20 20.9517 20C20.765 20 20.6184 19.94 20.5117 19.82C20.405 19.7 20.3517 19.56 20.3517 19.4V5.8C20.3517 5.64 20.405 5.5 20.5117 5.38C20.6317 5.26 20.7784 5.2 20.9517 5.2C21.125 5.2 21.265 5.26 21.3717 5.38C21.4917 5.5 21.5517 5.64 21.5517 5.8V12.28L21.0917 12.98C21.1184 12.5667 21.245 12.1667 21.4717 11.78C21.7117 11.38 22.0184 11.0267 22.3917 10.72C22.765 10.4 23.1784 10.1533 23.6317 9.98C24.085 9.79333 24.545 9.7 25.0117 9.7ZM32.0789 19.4C32.0789 19.56 32.0189 19.7 31.8989 19.82C31.7789 19.94 31.6389 20 31.4789 20C31.3055 20 31.1589 19.94 31.0389 19.82C30.9322 19.7 30.8789 19.56 30.8789 19.4V10.2C30.8789 10.04 30.9322 9.9 31.0389 9.78C31.1589 9.66 31.3055 9.6 31.4789 9.6C31.6522 9.6 31.7922 9.66 31.8989 9.78C32.0189 9.9 32.0789 10.04 32.0789 10.2V19.4ZM31.4789 8.26C31.1989 8.26 30.9855 8.2 30.8389 8.08C30.7055 7.94667 30.6389 7.76 30.6389 7.52V7.32C30.6389 7.08 30.7122 6.9 30.8589 6.78C31.0189 6.64667 31.2322 6.58 31.4989 6.58C31.7522 6.58 31.9455 6.64667 32.0789 6.78C32.2255 6.9 32.2989 7.08 32.2989 7.32V7.52C32.2989 7.76 32.2255 7.94667 32.0789 8.08C31.9455 8.2 31.7455 8.26 31.4789 8.26ZM33.8162 18.38C33.7095 18.22 33.6562 18.0667 33.6562 17.92C33.6695 17.76 33.7562 17.6333 33.9162 17.54C34.0229 17.4467 34.1429 17.4067 34.2762 17.42C34.4229 17.4333 34.5562 17.5 34.6762 17.62C35.0362 18.0867 35.4695 18.4667 35.9762 18.76C36.4962 19.04 37.1095 19.18 37.8162 19.18C38.1895 19.18 38.5562 19.12 38.9162 19C39.2895 18.8667 39.5962 18.6733 39.8362 18.42C40.0762 18.1533 40.1962 17.82 40.1962 17.42C40.1962 17.0067 40.0762 16.6733 39.8362 16.42C39.5962 16.1667 39.2829 15.9667 38.8962 15.82C38.5229 15.6733 38.1229 15.5467 37.6962 15.44C37.2429 15.32 36.8029 15.1867 36.3762 15.04C35.9495 14.88 35.5695 14.6867 35.2362 14.46C34.9162 14.22 34.6562 13.9333 34.4562 13.6C34.2562 13.2667 34.1562 12.86 34.1562 12.38C34.1562 11.82 34.3095 11.3267 34.6162 10.9C34.9229 10.4733 35.3362 10.14 35.8562 9.9C36.3895 9.66 36.9895 9.54 37.6562 9.54C37.9895 9.54 38.3495 9.58667 38.7362 9.68C39.1229 9.76 39.5029 9.9 39.8762 10.1C40.2495 10.3 40.5829 10.5733 40.8762 10.92C40.9962 11.04 41.0562 11.18 41.0562 11.34C41.0562 11.4867 40.9895 11.62 40.8562 11.74C40.7495 11.82 40.6229 11.86 40.4762 11.86C40.3429 11.86 40.2295 11.8067 40.1362 11.7C39.8162 11.34 39.4362 11.0667 38.9962 10.88C38.5562 10.6933 38.0829 10.6 37.5762 10.6C37.1895 10.6 36.8229 10.6667 36.4762 10.8C36.1429 10.92 35.8629 11.1067 35.6362 11.36C35.4095 11.6133 35.2962 11.9467 35.2962 12.36C35.3229 12.7467 35.4562 13.06 35.6962 13.3C35.9495 13.54 36.2762 13.74 36.6762 13.9C37.0895 14.06 37.5495 14.2067 38.0562 14.34C38.4829 14.4467 38.8895 14.5733 39.2762 14.72C39.6762 14.8667 40.0229 15.0533 40.3162 15.28C40.6229 15.4933 40.8629 15.7667 41.0362 16.1C41.2229 16.4333 41.3162 16.8533 41.3162 17.36C41.3162 17.9467 41.1495 18.4533 40.8162 18.88C40.4962 19.3067 40.0629 19.6333 39.5162 19.86C38.9695 20.0867 38.3629 20.2 37.6962 20.2C36.9762 20.2 36.2762 20.06 35.5962 19.78C34.9295 19.5 34.3362 19.0333 33.8162 18.38ZM47.8312 9.7C48.7379 9.7 49.5379 9.92667 50.2312 10.38C50.9379 10.82 51.4979 11.4333 51.9112 12.22C52.3246 12.9933 52.5312 13.8867 52.5312 14.9C52.5312 15.9133 52.3246 16.8133 51.9112 17.6C51.4979 18.3867 50.9379 19.0067 50.2312 19.46C49.5246 19.9133 48.7312 20.14 47.8512 20.14C47.3845 20.14 46.9379 20.0733 46.5112 19.94C46.0979 19.7933 45.7179 19.6 45.3712 19.36C45.0245 19.12 44.7179 18.84 44.4512 18.52C44.1845 18.1867 43.9712 17.8267 43.8112 17.44L44.1712 17.18V23.4C44.1712 23.56 44.1112 23.7 43.9912 23.82C43.8845 23.94 43.7445 24 43.5712 24C43.3979 24 43.2512 23.94 43.1312 23.82C43.0245 23.7 42.9712 23.56 42.9712 23.4V10.36C42.9712 10.1867 43.0245 10.04 43.1312 9.92C43.2379 9.8 43.3845 9.74 43.5712 9.74C43.7445 9.74 43.8845 9.8 43.9912 9.92C44.1112 10.04 44.1712 10.1867 44.1712 10.36V12.52L43.8912 12.36C44.0245 11.9467 44.2179 11.58 44.4712 11.26C44.7379 10.9267 45.0445 10.6467 45.3912 10.42C45.7379 10.18 46.1179 10 46.5312 9.88C46.9445 9.76 47.3779 9.7 47.8312 9.7ZM47.7312 10.82C47.0112 10.82 46.3779 11 45.8312 11.36C45.2845 11.7067 44.8512 12.1867 44.5312 12.8C44.2245 13.4 44.0712 14.1 44.0712 14.9C44.0712 15.6867 44.2245 16.3933 44.5312 17.02C44.8512 17.6467 45.2845 18.14 45.8312 18.5C46.3779 18.8467 47.0112 19.02 47.7312 19.02C48.4379 19.02 49.0579 18.8467 49.5912 18.5C50.1379 18.14 50.5712 17.6467 50.8912 17.02C51.2112 16.3933 51.3712 15.6867 51.3712 14.9C51.3712 14.1133 51.2112 13.4133 50.8912 12.8C50.5712 12.1867 50.1379 11.7067 49.5912 11.36C49.0579 11 48.4379 10.82 47.7312 10.82ZM58.9201 20.2C57.8935 20.2 56.9868 19.98 56.2001 19.54C55.4135 19.1 54.8001 18.4867 54.3601 17.7C53.9201 16.9133 53.7001 15.9933 53.7001 14.94C53.7001 13.8067 53.9201 12.84 54.3601 12.04C54.8135 11.24 55.3935 10.6267 56.1001 10.2C56.8201 9.76 57.5801 9.54 58.3801 9.54C58.9668 9.54 59.5335 9.64667 60.0801 9.86C60.6401 10.06 61.1335 10.3667 61.5601 10.78C62.0001 11.18 62.3468 11.6733 62.6001 12.26C62.8668 12.8467 63.0135 13.5267 63.0401 14.3C63.0268 14.46 62.9601 14.6 62.8401 14.72C62.7201 14.8267 62.5801 14.88 62.4201 14.88H54.4001L54.1601 13.8H62.0401L61.7801 14.04V13.64C61.7268 13.0133 61.5268 12.48 61.1801 12.04C60.8335 11.6 60.4135 11.2667 59.9201 11.04C59.4268 10.8133 58.9135 10.7 58.3801 10.7C57.9801 10.7 57.5668 10.78 57.1401 10.94C56.7268 11.1 56.3468 11.3533 56.0001 11.7C55.6668 12.0333 55.3935 12.4667 55.1801 13C54.9668 13.52 54.8601 14.14 54.8601 14.86C54.8601 15.6467 55.0201 16.36 55.3401 17C55.6601 17.64 56.1201 18.1467 56.7201 18.52C57.3335 18.8933 58.0601 19.08 58.9001 19.08C59.3668 19.08 59.7868 19.0133 60.1601 18.88C60.5335 18.7467 60.8601 18.5733 61.1401 18.36C61.4201 18.1333 61.6535 17.9 61.8401 17.66C61.9868 17.54 62.1335 17.48 62.2801 17.48C62.4135 17.48 62.5268 17.5333 62.6201 17.64C62.7268 17.7467 62.7801 17.8667 62.7801 18C62.7801 18.16 62.7135 18.3 62.5801 18.42C62.1801 18.9 61.6601 19.32 61.0201 19.68C60.3801 20.0267 59.6801 20.2 58.9201 20.2ZM65.4087 20C65.2221 20 65.0754 19.94 64.9687 19.82C64.8621 19.7 64.8087 19.56 64.8087 19.4V10.44C64.8087 10.28 64.8621 10.14 64.9687 10.02C65.0887 9.9 65.2354 9.84 65.4087 9.84C65.5821 9.84 65.7221 9.9 65.8287 10.02C65.9487 10.14 66.0087 10.28 66.0087 10.44V13.44L65.7087 13.5C65.7487 13.0333 65.8621 12.5733 66.0487 12.12C66.2487 11.6533 66.5154 11.2267 66.8487 10.84C67.1821 10.4533 67.5754 10.14 68.0287 9.9C68.4954 9.66 69.0154 9.54 69.5887 9.54C69.8287 9.54 70.0621 9.59333 70.2887 9.7C70.5154 9.79333 70.6287 9.95333 70.6287 10.18C70.6287 10.38 70.5754 10.5333 70.4687 10.64C70.3621 10.7467 70.2354 10.8 70.0887 10.8C69.9687 10.8 69.8354 10.7667 69.6887 10.7C69.5554 10.6333 69.3754 10.6 69.1487 10.6C68.7754 10.6 68.4021 10.7133 68.0287 10.94C67.6554 11.1533 67.3154 11.4467 67.0087 11.82C66.7021 12.1933 66.4554 12.6133 66.2687 13.08C66.0954 13.5333 66.0087 13.9933 66.0087 14.46V19.4C66.0087 19.56 65.9487 19.7 65.8287 19.82C65.7087 19.94 65.5687 20 65.4087 20Z" fill="url(#paint0_linear_41_675)" />
	<path d="M18.7753 6.12L18.576 6.34422L18.589 6.35579L18.6032 6.36577L18.7753 6.12ZM18.9353 6.82L19.2188 6.91792L19.2231 6.9055L19.2263 6.89276L18.9353 6.82ZM14.5153 19.62L14.2317 19.5221L14.2307 19.5251L14.5153 19.62ZM13.6153 19.92L13.4563 20.1744L13.4684 20.182L13.4811 20.1883L13.6153 19.92ZM13.3753 19.62L13.6538 19.5086L13.6534 19.5076L13.3753 19.62ZM9.83528 10.86L9.90804 10.569L9.33634 10.426L9.55713 10.9724L9.83528 10.86ZM9.99528 10.9L10.2732 11.0128L10.4032 10.6927L10.068 10.609L9.99528 10.9ZM6.45528 19.62L6.17731 19.5072L6.17674 19.5086L6.45528 19.62ZM6.19528 19.92L6.32957 20.1886L6.34097 20.1822L6.19528 19.92ZM5.53528 19.9L5.36091 20.1441L5.36844 20.1495L5.37628 20.1544L5.53528 19.9ZM5.33528 19.62L5.6199 19.5251L5.61885 19.5221L5.33528 19.62ZM0.91528 6.82L1.19895 6.72205L1.19618 6.71466L0.91528 6.82ZM1.07528 6.12L1.25173 6.36262L1.25173 6.36262L1.07528 6.12ZM1.87528 6.06L1.71628 6.3144L1.71628 6.3144L1.87528 6.06ZM2.09528 6.34L1.81066 6.43487L1.81151 6.43733L2.09528 6.34ZM6.11528 18.06L6.14244 18.3588L6.52305 18.3242L6.39905 17.9627L6.11528 18.06ZM5.89528 18.08L5.61683 17.9684L5.4345 18.4231L5.92244 18.3788L5.89528 18.08ZM9.37528 9.4L9.65373 9.51164L9.65706 9.50334L9.65989 9.49487L9.37528 9.4ZM9.57528 9.12L9.7497 9.36419L9.75528 9.36L9.57528 9.12ZM9.93528 9.02L9.90543 9.31851L9.93528 9.3215L9.96513 9.31851L9.93528 9.02ZM10.2753 9.12L10.08 9.34778L10.0972 9.36245L10.1163 9.3744L10.2753 9.12ZM10.5153 9.4L10.7942 9.28894L10.7894 9.27816L10.5153 9.4ZM13.9553 18.04L14.0578 18.3219L14.3484 18.2163L14.234 17.929L13.9553 18.04ZM13.7353 18.12L13.4512 18.0235L13.2502 18.6156L13.8378 18.4019L13.7353 18.12ZM17.7353 6.34L18.0194 6.43646L18.0199 6.43487L17.7353 6.34ZM18.3353 5.96V6.26C18.4415 6.26 18.5155 6.29043 18.576 6.34422L18.7753 6.12L18.9746 5.89578C18.7951 5.73624 18.5757 5.66 18.3353 5.66V5.96ZM18.7753 6.12L18.6032 6.36577C18.6377 6.38987 18.6753 6.43258 18.6753 6.56H18.9753H19.2753C19.2753 6.28741 19.1796 6.0368 18.9473 5.87423L18.7753 6.12ZM18.9753 6.56H18.6753C18.6753 6.59147 18.6683 6.65113 18.6442 6.74724L18.9353 6.82L19.2263 6.89276C19.2556 6.77553 19.2753 6.66186 19.2753 6.56H18.9753ZM18.9353 6.82L18.6517 6.72208L14.2317 19.5221L14.5153 19.62L14.7989 19.7179L19.2188 6.91792L18.9353 6.82ZM14.5153 19.62L14.2307 19.5251C14.2126 19.5794 14.1834 19.6161 14.1363 19.6456L14.2953 19.9L14.4543 20.1544C14.6204 20.0505 14.738 19.9006 14.7999 19.7149L14.5153 19.62ZM14.2953 19.9L14.1363 19.6456C14.0686 19.6879 14.0163 19.7 13.9753 19.7V20V20.3C14.1476 20.3 14.3086 20.2455 14.4543 20.1544L14.2953 19.9ZM13.9753 20V19.7C13.883 19.7 13.8098 19.6818 13.7494 19.6517L13.6153 19.92L13.4811 20.1883C13.6341 20.2648 13.8009 20.3 13.9753 20.3V20ZM13.6153 19.92L13.7743 19.6656C13.7291 19.6374 13.687 19.5915 13.6538 19.5086L13.3753 19.62L13.0967 19.7314C13.1702 19.9152 13.2881 20.0693 13.4563 20.1744L13.6153 19.92ZM13.3753 19.62L13.6534 19.5076L10.1134 10.7476L9.83528 10.86L9.55713 10.9724L13.0971 19.7324L13.3753 19.62ZM9.83528 10.86L9.76252 11.151L9.92252 11.191L9.99528 10.9L10.068 10.609L9.90804 10.569L9.83528 10.86ZM9.99528 10.9L9.71731 10.7872L6.17731 19.5072L6.45528 19.62L6.73325 19.7328L10.2732 11.0128L9.99528 10.9ZM6.45528 19.62L6.17674 19.5086C6.14775 19.5811 6.10634 19.6262 6.04959 19.6578L6.19528 19.92L6.34097 20.1822C6.52422 20.0804 6.65614 19.9256 6.73382 19.7314L6.45528 19.62ZM6.19528 19.92L6.06112 19.6517C5.99637 19.684 5.92901 19.7 5.85528 19.7V20V20.3C6.02155 20.3 6.18085 20.2626 6.32944 20.1883L6.19528 19.92ZM5.85528 20V19.7C5.81425 19.7 5.76193 19.6879 5.69428 19.6456L5.53528 19.9L5.37628 20.1544C5.52196 20.2455 5.68298 20.3 5.85528 20.3V20ZM5.53528 19.9L5.70965 19.6559C5.67322 19.6299 5.642 19.5915 5.61988 19.5251L5.33528 19.62L5.05067 19.7149C5.10856 19.8885 5.21067 20.0368 5.36091 20.1441L5.53528 19.9ZM5.33528 19.62L5.61885 19.5221L1.19885 6.72208L0.91528 6.82L0.63171 6.91792L5.05171 19.7179L5.33528 19.62ZM0.91528 6.82L1.19618 6.71466C1.17879 6.66829 1.16775 6.63293 1.16132 6.60724C1.15441 6.57961 1.15528 6.57264 1.15528 6.58H0.85528H0.55528C0.55528 6.69113 0.592799 6.81445 0.634381 6.92534L0.91528 6.82ZM0.85528 6.58H1.15528C1.15528 6.46453 1.1915 6.40642 1.25173 6.36262L1.07528 6.12L0.898829 5.87738C0.665722 6.04691 0.55528 6.29546 0.55528 6.58H0.85528ZM1.07528 6.12L1.25173 6.36262C1.35943 6.28429 1.44571 6.26 1.51528 6.26V5.96V5.66C1.29152 5.66 1.08446 5.74237 0.898828 5.87738L1.07528 6.12ZM1.51528 5.96V6.26C1.59591 6.26 1.6602 6.27935 1.71628 6.3144L1.87528 6.06L2.03428 5.8056C1.87703 5.70732 1.70131 5.66 1.51528 5.66V5.96ZM1.87528 6.06L1.71628 6.3144C1.76345 6.34388 1.79259 6.38062 1.81067 6.43487L2.09528 6.34L2.37988 6.24513C2.31797 6.05938 2.20045 5.90945 2.03428 5.8056L1.87528 6.06ZM2.09528 6.34L1.81151 6.43733L5.83151 18.1573L6.11528 18.06L6.39905 17.9627L2.37905 6.24266L2.09528 6.34ZM6.11528 18.06L6.08812 17.7612L5.86812 17.7812L5.89528 18.08L5.92244 18.3788L6.14244 18.3588L6.11528 18.06ZM5.89528 18.08L6.17373 18.1916L9.65373 9.51164L9.37528 9.4L9.09683 9.28836L5.61683 17.9684L5.89528 18.08ZM9.37528 9.4L9.65989 9.49487C9.682 9.42852 9.71322 9.39014 9.74965 9.36412L9.57528 9.12L9.40091 8.87588C9.25067 8.98319 9.14856 9.13148 9.09068 9.30513L9.37528 9.4ZM9.57528 9.12L9.75528 9.36C9.80147 9.32536 9.84649 9.31262 9.90543 9.31851L9.93528 9.02L9.96513 8.72149C9.7574 8.70072 9.56243 8.75464 9.39528 8.88L9.57528 9.12ZM9.93528 9.02L9.96513 9.31851C10.0251 9.31252 10.0549 9.32621 10.08 9.34778L10.2753 9.12L10.4705 8.89222C10.309 8.75379 10.1122 8.70082 9.90543 8.72149L9.93528 9.02ZM10.2753 9.12L10.1163 9.3744C10.1699 9.40791 10.211 9.45398 10.2411 9.52184L10.5153 9.4L10.7894 9.27816C10.7129 9.10602 10.594 8.96542 10.4343 8.8656L10.2753 9.12ZM10.5153 9.4L10.2366 9.51097L13.6766 18.151L13.9553 18.04L14.234 17.929L10.794 9.28903L10.5153 9.4ZM13.9553 18.04L13.8528 17.7581L13.6328 17.8381L13.7353 18.12L13.8378 18.4019L14.0578 18.3219L13.9553 18.04ZM13.7353 18.12L14.0194 18.2165L18.0194 6.43646L17.7353 6.34L17.4512 6.24354L13.4512 18.0235L13.7353 18.12ZM17.7353 6.34L18.0199 6.43487C18.038 6.38062 18.0671 6.34388 18.1143 6.3144L17.9553 6.06L17.7963 5.8056C17.6301 5.90945 17.5126 6.05938 17.4507 6.24513L17.7353 6.34ZM17.9553 6.06L18.1143 6.3144C18.1658 6.28219 18.2353 6.26 18.3353 6.26V5.96V5.66C18.1419 5.66 17.9581 5.70447 17.7963 5.8056L17.9553 6.06ZM27.0517 10.24L27.2225 9.99334L27.0517 10.24ZM28.1917 11.7L27.9123 11.8093L27.9144 11.8145L28.1917 11.7ZM28.3917 19.82L28.6038 20.0321L28.3917 19.82ZM27.5317 19.82L27.7559 19.6207H27.7559L27.5317 19.82ZM27.1117 12.26L26.8297 12.3626L26.8326 12.37L27.1117 12.26ZM26.3117 11.22L26.1373 11.4642L26.1432 11.4682L26.3117 11.22ZM23.2117 11.22L23.3487 11.4869L23.3514 11.4855L23.2117 11.22ZM22.0117 12.26L21.7656 12.0885L22.0117 12.26ZM21.3717 19.82L21.1596 19.6079L21.3717 19.82ZM20.5117 5.38L20.2996 5.16787L20.2933 5.1741L20.2875 5.18069L20.5117 5.38ZM21.3717 5.38L21.1475 5.57931L21.1533 5.5859L21.1596 5.59213L21.3717 5.38ZM21.5517 12.28L21.8024 12.4448L21.8517 12.3697V12.28H21.5517ZM21.0917 12.98L20.7923 12.9607L20.7193 14.093L21.3424 13.1448L21.0917 12.98ZM21.4717 11.78L21.2144 11.6256L21.2129 11.6283L21.4717 11.78ZM22.3917 10.72L22.5821 10.9519L22.5869 10.9478L22.3917 10.72ZM23.6317 9.98L23.7389 10.2603L23.7459 10.2574L23.6317 9.98ZM25.0117 9.7V10C25.8104 10 26.4252 10.1711 26.8809 10.4867L27.0517 10.24L27.2225 9.99334C26.6382 9.58885 25.893 9.4 25.0117 9.4V9.7ZM27.0517 10.24L26.8809 10.4867C27.3498 10.8112 27.6931 11.2491 27.9123 11.8093L28.1917 11.7L28.4711 11.5907C28.2103 10.9242 27.7936 10.3888 27.2225 9.99334L27.0517 10.24ZM28.1917 11.7L27.9144 11.8145C28.151 12.3873 28.2717 13.0277 28.2717 13.74H28.5717H28.8717C28.8717 12.9589 28.7391 12.2394 28.469 11.5855L28.1917 11.7ZM28.5717 13.74H28.2717V19.4H28.5717H28.8717V13.74H28.5717ZM28.5717 19.4H28.2717C28.2717 19.4752 28.2471 19.5403 28.1796 19.6079L28.3917 19.82L28.6038 20.0321C28.7763 19.8597 28.8717 19.6448 28.8717 19.4H28.5717ZM28.3917 19.82L28.1796 19.6079C28.112 19.6754 28.0469 19.7 27.9717 19.7V20V20.3C28.2165 20.3 28.4313 20.2046 28.6038 20.0321L28.3917 19.82ZM27.9717 20V19.7C27.8554 19.7 27.7962 19.666 27.7559 19.6207L27.5317 19.82L27.3075 20.0193C27.4805 20.214 27.7147 20.3 27.9717 20.3V20ZM27.5317 19.82L27.7559 19.6207C27.6979 19.5554 27.6717 19.4862 27.6717 19.4H27.3717H27.0717C27.0717 19.6338 27.1522 19.8446 27.3075 20.0193L27.5317 19.82ZM27.3717 19.4H27.6717V13.74H27.3717H27.0717V19.4H27.3717ZM27.3717 13.74H27.6717C27.6717 13.1615 27.5799 12.6301 27.3908 12.15L27.1117 12.26L26.8326 12.37C26.9901 12.7699 27.0717 13.2252 27.0717 13.74H27.3717ZM27.1117 12.26L27.3936 12.1575C27.2129 11.6606 26.9077 11.2619 26.4801 10.9718L26.3117 11.22L26.1432 11.4682C26.4623 11.6847 26.6904 11.9794 26.8297 12.3625L27.1117 12.26ZM26.3117 11.22L26.4861 10.9759C26.0462 10.6617 25.4785 10.52 24.8117 10.52V10.82V11.12C25.3982 11.12 25.8305 11.2449 26.1373 11.4641L26.3117 11.22ZM24.8117 10.82V10.52C24.2019 10.52 23.6207 10.6657 23.072 10.9545L23.2117 11.22L23.3514 11.4855C23.816 11.241 24.3015 11.12 24.8117 11.12V10.82ZM23.2117 11.22L23.0746 10.9531C22.5392 11.2281 22.1012 11.6069 21.7656 12.0885L22.0117 12.26L22.2578 12.4315C22.5355 12.0331 22.8975 11.7186 23.3487 11.4869L23.2117 11.22ZM22.0117 12.26L21.7656 12.0885C21.4231 12.5798 21.2517 13.1333 21.2517 13.74H21.5517H21.8517C21.8517 13.2534 21.9869 12.8202 22.2578 12.4315L22.0117 12.26ZM21.5517 13.74H21.2517V19.4H21.5517H21.8517V13.74H21.5517ZM21.5517 19.4H21.2517C21.2517 19.4752 21.2271 19.5403 21.1596 19.6079L21.3717 19.82L21.5838 20.0321C21.7563 19.8597 21.8517 19.6448 21.8517 19.4H21.5517ZM21.3717 19.82L21.1596 19.6079C21.092 19.6754 21.0269 19.7 20.9517 19.7V20V20.3C21.1965 20.3 21.4113 20.2046 21.5838 20.0321L21.3717 19.82ZM20.9517 20V19.7C20.8354 19.7 20.7762 19.666 20.7359 19.6207L20.5117 19.82L20.2875 20.0193C20.4605 20.214 20.6947 20.3 20.9517 20.3V20ZM20.5117 19.82L20.7359 19.6207C20.6779 19.5554 20.6517 19.4862 20.6517 19.4H20.3517H20.0517C20.0517 19.6338 20.1322 19.8446 20.2875 20.0193L20.5117 19.82ZM20.3517 19.4H20.6517V5.8H20.3517H20.0517V19.4H20.3517ZM20.3517 5.8H20.6517C20.6517 5.71375 20.6779 5.6446 20.7359 5.57931L20.5117 5.38L20.2875 5.18069C20.1322 5.35539 20.0517 5.56624 20.0517 5.8H20.3517ZM20.5117 5.38L20.7238 5.59213C20.7862 5.52973 20.856 5.5 20.9517 5.5V5.2V4.9C20.7007 4.9 20.4771 4.99027 20.2996 5.16787L20.5117 5.38ZM20.9517 5.2V5.5C21.047 5.5 21.1026 5.52888 21.1475 5.57931L21.3717 5.38L21.5959 5.18069C21.4274 4.99112 21.203 4.9 20.9517 4.9V5.2ZM21.3717 5.38L21.1596 5.59213C21.2271 5.65966 21.2517 5.72476 21.2517 5.8H21.5517H21.8517C21.8517 5.55523 21.7563 5.34034 21.5838 5.16787L21.3717 5.38ZM21.5517 5.8H21.2517V12.28H21.5517H21.8517V5.8H21.5517ZM21.5517 12.28L21.301 12.1152L20.841 12.8152L21.0917 12.98L21.3424 13.1448L21.8024 12.4448L21.5517 12.28ZM21.0917 12.98L21.3911 12.9993C21.4145 12.6364 21.5255 12.2814 21.7305 11.9317L21.4717 11.78L21.2129 11.6283C20.9645 12.0519 20.8222 12.4969 20.7923 12.9607L21.0917 12.98ZM21.4717 11.78L21.7289 11.9343C21.9506 11.5649 22.2344 11.2375 22.5821 10.9518L22.3917 10.72L22.2013 10.4882C21.8023 10.8159 21.4727 11.1951 21.2144 11.6257L21.4717 11.78ZM22.3917 10.72L22.5869 10.9478C22.9345 10.6499 23.3181 10.4211 23.7388 10.2602L23.6317 9.98L23.5245 9.69978C23.0386 9.88558 22.5956 10.1501 22.1964 10.4922L22.3917 10.72ZM23.6317 9.98L23.7459 10.2574C24.1649 10.0849 24.5862 10 25.0117 10V9.7V9.4C24.5039 9.4 24.0052 9.50178 23.5175 9.7026L23.6317 9.98ZM31.8989 19.82L31.6867 19.6079L31.8989 19.82ZM31.0389 19.82L30.8146 20.0193L30.8205 20.0259L30.8267 20.0321L31.0389 19.82ZM31.0389 9.78L30.8267 9.56787L30.8205 9.5741L30.8146 9.58069L31.0389 9.78ZM31.8989 9.78L31.6747 9.97931L31.6805 9.9859L31.6867 9.99213L31.8989 9.78ZM30.8389 8.08L30.6267 8.29213L30.6373 8.30271L30.6489 8.31219L30.8389 8.08ZM30.8589 6.78L31.0489 7.0122L31.0509 7.01047L30.8589 6.78ZM32.0789 6.78L31.8667 6.99213L31.8773 7.00271L31.8889 7.01219L32.0789 6.78ZM32.0789 8.08L32.2796 8.30299L32.2807 8.30198L32.0789 8.08ZM32.0789 19.4H31.7789C31.7789 19.4752 31.7543 19.5403 31.6867 19.6079L31.8989 19.82L32.111 20.0321C32.2835 19.8597 32.3789 19.6448 32.3789 19.4H32.0789ZM31.8989 19.82L31.6867 19.6079C31.6192 19.6754 31.5541 19.7 31.4789 19.7V20V20.3C31.7236 20.3 31.9385 20.2046 32.111 20.0321L31.8989 19.82ZM31.4789 20V19.7C31.3832 19.7 31.3134 19.6703 31.251 19.6079L31.0389 19.82L30.8267 20.0321C31.0043 20.2097 31.2279 20.3 31.4789 20.3V20ZM31.0389 19.82L31.2631 19.6207C31.2051 19.5554 31.1789 19.4862 31.1789 19.4H30.8789H30.5789C30.5789 19.6338 30.6594 19.8446 30.8146 20.0193L31.0389 19.82ZM30.8789 19.4H31.1789V10.2H30.8789H30.5789V19.4H30.8789ZM30.8789 10.2H31.1789C31.1789 10.1138 31.2051 10.0446 31.2631 9.97931L31.0389 9.78L30.8146 9.58069C30.6594 9.75539 30.5789 9.96624 30.5789 10.2H30.8789ZM31.0389 9.78L31.251 9.99213C31.3134 9.92973 31.3832 9.9 31.4789 9.9V9.6V9.3C31.2279 9.3 31.0043 9.39027 30.8267 9.56787L31.0389 9.78ZM31.4789 9.6V9.9C31.5742 9.9 31.6298 9.92888 31.6747 9.97931L31.8989 9.78L32.1231 9.58069C31.9546 9.39112 31.7302 9.3 31.4789 9.3V9.6ZM31.8989 9.78L31.6867 9.99213C31.7543 10.0597 31.7789 10.1248 31.7789 10.2H32.0789H32.3789C32.3789 9.95523 32.2835 9.74034 32.111 9.56787L31.8989 9.78ZM32.0789 10.2H31.7789V19.4H32.0789H32.3789V10.2H32.0789ZM31.4789 8.26V7.96C31.2362 7.96 31.1015 7.90727 31.0288 7.84781L30.8389 8.08L30.6489 8.31219C30.8696 8.49272 31.1616 8.56 31.4789 8.56V8.26ZM30.8389 8.08L31.051 7.86787C30.9882 7.80509 30.9389 7.70322 30.9389 7.52H30.6389H30.3389C30.3389 7.81678 30.4229 8.08825 30.6267 8.29213L30.8389 8.08ZM30.6389 7.52H30.9389V7.32H30.6389H30.3389V7.52H30.6389ZM30.6389 7.32H30.9389C30.9389 7.14391 30.9898 7.06053 31.0488 7.01219L30.8589 6.78L30.6689 6.54781C30.4347 6.73947 30.3389 7.01609 30.3389 7.32H30.6389ZM30.8589 6.78L31.0509 7.01047C31.1434 6.93343 31.2823 6.88 31.4989 6.88V6.58V6.28C31.1821 6.28 30.8944 6.3599 30.6668 6.54953L30.8589 6.78ZM31.4989 6.58V6.88C31.7008 6.88 31.8069 6.93225 31.8667 6.99213L32.0789 6.78L32.291 6.56787C32.0842 6.36108 31.8036 6.28 31.4989 6.28V6.58ZM32.0789 6.78L31.8889 7.01219C31.948 7.06053 31.9989 7.14391 31.9989 7.32H32.2989H32.5989C32.5989 7.01609 32.5031 6.73947 32.2688 6.54781L32.0789 6.78ZM32.2989 7.32H31.9989V7.52H32.2989H32.5989V7.32H32.2989ZM32.2989 7.52H31.9989C31.9989 7.69479 31.9482 7.79335 31.8771 7.85802L32.0789 8.08L32.2807 8.30198C32.5029 8.09998 32.5989 7.82521 32.5989 7.52H32.2989ZM32.0789 8.08L31.8782 7.85701C31.8215 7.90807 31.7066 7.96 31.4789 7.96V8.26V8.56C31.7844 8.56 32.0696 8.49193 32.2796 8.30299L32.0789 8.08ZM33.8162 18.38L33.5666 18.5464L33.5736 18.5569L33.5815 18.5668L33.8162 18.38ZM33.6562 17.92L33.3573 17.8951L33.3562 17.9075V17.92H33.6562ZM33.9162 17.54L34.0674 17.7991L34.0922 17.7847L34.1138 17.7658L33.9162 17.54ZM34.2762 17.42L34.2464 17.7185L34.2491 17.7188L34.2762 17.42ZM34.6762 17.62L34.9137 17.4368L34.902 17.4215L34.8883 17.4079L34.6762 17.62ZM35.9762 18.76L35.8258 19.0198L35.834 19.0241L35.9762 18.76ZM38.9162 19L39.0111 19.2847L39.0171 19.2825L38.9162 19ZM39.8362 18.42L40.0541 18.6264L40.0592 18.6207L39.8362 18.42ZM39.8362 16.42L39.6184 16.6263L39.8362 16.42ZM38.8962 15.82L38.7865 16.0992L38.7898 16.1005L38.8962 15.82ZM37.6962 15.44L37.6194 15.73L37.6235 15.731L37.6962 15.44ZM36.3762 15.04L36.2708 15.321L36.2787 15.3237L36.3762 15.04ZM35.2362 14.46L35.056 14.7003L35.0675 14.7081L35.2362 14.46ZM35.8562 9.9L35.7331 9.62641L35.7305 9.62761L35.8562 9.9ZM38.7362 9.68L38.6658 9.97178L38.6754 9.97378L38.7362 9.68ZM39.8762 10.1L39.7346 10.3644L39.8762 10.1ZM40.8762 10.92L40.6472 11.1138L40.6553 11.1233L40.6641 11.1321L40.8762 10.92ZM40.8562 11.74L41.0362 11.98L41.0469 11.972L41.0569 11.963L40.8562 11.74ZM40.1362 11.7L40.362 11.5024L40.3604 11.5007L40.1362 11.7ZM36.4762 10.8L36.5779 11.0823L36.5839 11.08L36.4762 10.8ZM35.6362 11.36L35.8598 11.56L35.6362 11.36ZM35.2962 12.36H34.9962V12.3703L34.9969 12.3806L35.2962 12.36ZM35.6962 13.3L35.484 13.5122L35.4899 13.5178L35.6962 13.3ZM36.6762 13.9L36.5648 14.1786L36.5679 14.1798L36.6762 13.9ZM38.0562 14.34L37.9799 14.6301L37.9835 14.631L38.0562 14.34ZM39.2762 14.72L39.1698 15.0005L39.1729 15.0017L39.2762 14.72ZM40.3162 15.28L40.1328 15.5174L40.1387 15.522L40.1449 15.5263L40.3162 15.28ZM41.0362 16.1L40.7699 16.2385L40.7745 16.2466L41.0362 16.1ZM40.8162 18.88L40.5798 18.6953L40.5762 18.7L40.8162 18.88ZM39.5162 19.86L39.4013 19.5829L39.5162 19.86ZM35.5962 19.78L35.48 20.0566L35.482 20.0574L35.5962 19.78ZM33.8162 18.38L34.0658 18.2136C33.9819 18.0878 33.9562 17.9916 33.9562 17.92H33.6562H33.3562C33.3562 18.1418 33.4372 18.3522 33.5666 18.5464L33.8162 18.38ZM33.6562 17.92L33.9552 17.9449C33.959 17.8985 33.9769 17.8519 34.0674 17.7991L33.9162 17.54L33.7651 17.2809C33.5355 17.4148 33.3801 17.6215 33.3573 17.8951L33.6562 17.92ZM33.9162 17.54L34.1138 17.7658C34.162 17.7236 34.2008 17.714 34.2464 17.7185L34.2762 17.42L34.3061 17.1215C34.0849 17.0994 33.8838 17.1698 33.7187 17.3142L33.9162 17.54ZM34.2762 17.42L34.2491 17.7188C34.3154 17.7248 34.3857 17.7538 34.4641 17.8321L34.6762 17.62L34.8883 17.4079C34.7267 17.2462 34.5304 17.1419 34.3034 17.1212L34.2762 17.42ZM34.6762 17.62L34.4387 17.8032C34.8223 18.3006 35.2852 18.7066 35.8259 19.0196L35.9762 18.76L36.1265 18.5004C35.6539 18.2267 35.2501 17.8727 34.9137 17.4368L34.6762 17.62ZM35.9762 18.76L35.834 19.0241C36.4055 19.3319 37.0696 19.48 37.8162 19.48V19.18V18.88C37.1495 18.88 36.5869 18.7481 36.1184 18.4959L35.9762 18.76ZM37.8162 19.18V19.48C38.2223 19.48 38.621 19.4146 39.0111 19.2846L38.9162 19L38.8213 18.7154C38.4914 18.8254 38.1568 18.88 37.8162 18.88V19.18ZM38.9162 19L39.0171 19.2825C39.4288 19.1355 39.7774 18.9183 40.054 18.6263L39.8362 18.42L39.6184 18.2137C39.415 18.4284 39.1503 18.5978 38.8153 18.7175L38.9162 19ZM39.8362 18.42L40.0592 18.6207C40.3546 18.2925 40.4962 17.8849 40.4962 17.42H40.1962H39.8962C39.8962 17.7551 39.7978 18.0142 39.6132 18.2193L39.8362 18.42ZM40.1962 17.42H40.4962C40.4962 16.945 40.3563 16.5328 40.054 16.2137L39.8362 16.42L39.6184 16.6263C39.7961 16.8139 39.8962 17.0683 39.8962 17.42H40.1962ZM39.8362 16.42L40.054 16.2137C39.7777 15.922 39.4238 15.6993 39.0026 15.5395L38.8962 15.82L38.7898 16.1005C39.142 16.2341 39.4147 16.4113 39.6184 16.6263L39.8362 16.42ZM38.8962 15.82L39.0059 15.5408C38.6194 15.3889 38.207 15.2585 37.769 15.149L37.6962 15.44L37.6235 15.731C38.0388 15.8349 38.4263 15.9577 38.7865 16.0992L38.8962 15.82ZM37.6962 15.44L37.773 15.15C37.3264 15.0318 36.8933 14.9005 36.4737 14.7563L36.3762 15.04L36.2787 15.3237C36.7125 15.4728 37.1594 15.6082 37.6194 15.73L37.6962 15.44ZM36.3762 15.04L36.4816 14.7591C36.0744 14.6064 35.7161 14.4236 35.4049 14.2119L35.2362 14.46L35.0675 14.7081C35.423 14.9498 35.8247 15.1536 36.2709 15.3209L36.3762 15.04ZM35.2362 14.46L35.4162 14.22C35.1263 14.0026 34.8929 13.7447 34.7135 13.4457L34.4562 13.6L34.199 13.7543C34.4195 14.1219 34.7061 14.4374 35.0562 14.7L35.2362 14.46ZM34.4562 13.6L34.7135 13.4457C34.5473 13.1688 34.4562 12.8183 34.4562 12.38H34.1562H33.8562C33.8562 12.9017 33.9651 13.3646 34.199 13.7543L34.4562 13.6ZM34.1562 12.38H34.4562C34.4562 11.8785 34.5923 11.4473 34.8598 11.0751L34.6162 10.9L34.3726 10.7249C34.0268 11.206 33.8562 11.7615 33.8562 12.38H34.1562ZM34.6162 10.9L34.8598 11.0751C35.1336 10.6942 35.5046 10.3927 35.9819 10.1724L35.8562 9.9L35.7305 9.62761C35.1678 9.88731 34.7122 10.2524 34.3726 10.7249L34.6162 10.9ZM35.8562 9.9L35.9793 10.1736C36.4689 9.95327 37.0261 9.84 37.6562 9.84V9.54V9.24C36.953 9.24 36.3102 9.36673 35.7331 9.62642L35.8562 9.9ZM37.6562 9.54V9.84C37.9618 9.84 38.2979 9.88282 38.6658 9.97162L38.7362 9.68L38.8066 9.38837C38.4012 9.29051 38.0173 9.24 37.6562 9.24V9.54ZM38.7362 9.68L38.6754 9.97378C39.0319 10.0475 39.3848 10.1771 39.7346 10.3644L39.8762 10.1L40.0179 9.83556C39.621 9.62293 39.2139 9.47247 38.797 9.38622L38.7362 9.68ZM39.8762 10.1L39.7346 10.3644C40.0722 10.5453 40.3765 10.7939 40.6472 11.1138L40.8762 10.92L41.1052 10.7262C40.7893 10.3528 40.4269 10.0547 40.0179 9.83556L39.8762 10.1ZM40.8762 10.92L40.6641 11.1321C40.7316 11.1997 40.7562 11.2648 40.7562 11.34H41.0562H41.3562C41.3562 11.0952 41.2608 10.8803 41.0883 10.7079L40.8762 10.92ZM41.0562 11.34H40.7562C40.7562 11.3831 40.7409 11.4402 40.6555 11.517L40.8562 11.74L41.0569 11.963C41.2382 11.7998 41.3562 11.5903 41.3562 11.34H41.0562ZM40.8562 11.74L40.6762 11.5C40.6267 11.5371 40.5648 11.56 40.4762 11.56V11.86V12.16C40.6809 12.16 40.8724 12.1029 41.0362 11.98L40.8562 11.74ZM40.4762 11.86V11.56C40.4354 11.56 40.4024 11.5487 40.362 11.5024L40.1362 11.7L39.9104 11.8976C40.0567 12.0647 40.2504 12.16 40.4762 12.16V11.86ZM40.1362 11.7L40.3604 11.5007C40.0111 11.1077 39.5947 10.808 39.1134 10.6038L38.9962 10.88L38.8791 11.1562C39.2778 11.3253 39.6213 11.5723 39.912 11.8993L40.1362 11.7ZM38.9962 10.88L39.1134 10.6038C38.6341 10.4005 38.1207 10.3 37.5762 10.3V10.6V10.9C38.0451 10.9 38.4783 10.9862 38.8791 11.1562L38.9962 10.88ZM37.5762 10.6V10.3C37.1543 10.3 36.751 10.3729 36.3685 10.52L36.4762 10.8L36.5839 11.08C36.8948 10.9604 37.2248 10.9 37.5762 10.9V10.6ZM36.4762 10.8L36.3746 10.5177C35.9965 10.6539 35.6739 10.8679 35.4126 11.16L35.6362 11.36L35.8598 11.56C36.0518 11.3454 36.2893 11.1861 36.5778 11.0823L36.4762 10.8ZM35.6362 11.36L35.4126 11.16C35.1267 11.4796 34.9962 11.8896 34.9962 12.36H35.2962H35.5962C35.5962 12.0038 35.6924 11.7471 35.8598 11.56L35.6362 11.36ZM35.2962 12.36L34.9969 12.3806C35.0278 12.8286 35.1856 13.2137 35.4841 13.5121L35.6962 13.3L35.9083 13.0879C35.7268 12.9063 35.6179 12.6647 35.5955 12.3394L35.2962 12.36ZM35.6962 13.3L35.4899 13.5178C35.7764 13.7892 36.1376 14.0077 36.5648 14.1785L36.6762 13.9L36.7876 13.6215C36.4148 13.4723 36.1227 13.2908 35.9025 13.0822L35.6962 13.3ZM36.6762 13.9L36.5679 14.1798C36.9934 14.3445 37.4643 14.4944 37.9799 14.6301L38.0562 14.34L38.1326 14.0499C37.6348 13.9189 37.1857 13.7755 36.7845 13.6202L36.6762 13.9ZM38.0562 14.34L37.9835 14.631C38.3994 14.735 38.7948 14.8583 39.1698 15.0005L39.2762 14.72L39.3826 14.4395C38.9843 14.2884 38.5663 14.1583 38.129 14.049L38.0562 14.34ZM39.2762 14.72L39.1729 15.0017C39.5483 15.1393 39.8671 15.3121 40.1328 15.5174L40.3162 15.28L40.4996 15.0426C40.1787 14.7946 39.8041 14.594 39.3795 14.4383L39.2762 14.72ZM40.3162 15.28L40.1449 15.5263C40.4114 15.7117 40.619 15.9479 40.7701 16.2384L41.0362 16.1L41.3024 15.9616C41.1068 15.5854 40.8343 15.275 40.4875 15.0337L40.3162 15.28ZM41.0362 16.1L40.7745 16.2466C40.9292 16.5229 41.0162 16.8885 41.0162 17.36H41.3162H41.6162C41.6162 16.8182 41.5166 16.3438 41.298 15.9534L41.0362 16.1ZM41.3162 17.36H41.0162C41.0162 17.8857 40.8684 18.3259 40.5798 18.6953L40.8162 18.88L41.0526 19.0647C41.4307 18.5808 41.6162 18.0076 41.6162 17.36H41.3162ZM40.8162 18.88L40.5762 18.7C40.2919 19.0791 39.9039 19.3745 39.4013 19.5829L39.5162 19.86L39.6311 20.1371C40.2218 19.8922 40.7005 19.5343 41.0562 19.06L40.8162 18.88ZM39.5162 19.86L39.4013 19.5829C38.8954 19.7926 38.3284 19.9 37.6962 19.9V20.2V20.5C38.3973 20.5 39.0437 20.3807 39.6311 20.1371L39.5162 19.86ZM37.6962 20.2V19.9C37.0163 19.9 36.355 19.768 35.7104 19.5026L35.5962 19.78L35.482 20.0574C36.1974 20.352 36.9362 20.5 37.6962 20.5V20.2ZM35.5962 19.78L35.7124 19.5034C35.0989 19.2457 34.5445 18.8133 34.0509 18.1932L33.8162 18.38L33.5815 18.5668C34.128 19.2534 34.7602 19.7543 35.48 20.0566L35.5962 19.78ZM50.2312 10.38L50.067 10.6312L50.0727 10.6347L50.2312 10.38ZM51.9112 12.22L51.6456 12.3595L51.6466 12.3614L51.9112 12.22ZM51.9112 17.6L51.6456 17.4605L51.9112 17.6ZM50.2312 19.46L50.3932 19.7125L50.2312 19.46ZM46.5112 19.94L46.4108 20.2229L46.4217 20.2263L46.5112 19.94ZM45.3712 19.36L45.542 19.1133L45.3712 19.36ZM44.4512 18.52L44.2169 18.7074L44.2207 18.7121L44.4512 18.52ZM43.8112 17.44L43.6356 17.1968L43.4434 17.3356L43.534 17.5547L43.8112 17.44ZM44.1712 17.18H44.4712V16.5933L43.9956 16.9368L44.1712 17.18ZM43.9912 23.82L43.7791 23.6079L43.7729 23.6141L43.767 23.6207L43.9912 23.82ZM43.1312 23.82L42.907 24.0193L42.9128 24.0259L42.9191 24.0321L43.1312 23.82ZM43.1312 9.92L43.3554 10.1193L43.1312 9.92ZM43.9912 9.92L43.767 10.1193L43.7729 10.1259L43.7791 10.1321L43.9912 9.92ZM44.1712 12.52L44.0224 12.7805L44.4712 13.037V12.52H44.1712ZM43.8912 12.36L43.6057 12.2679L43.5309 12.4997L43.7424 12.6205L43.8912 12.36ZM44.4712 11.26L44.237 11.0726L44.236 11.0738L44.4712 11.26ZM45.3912 10.42L45.5555 10.6712L45.562 10.6667L45.3912 10.42ZM46.5312 9.88L46.4476 9.5919L46.5312 9.88ZM45.8312 11.36L45.9919 11.6134L45.9962 11.6106L45.8312 11.36ZM44.5312 12.8L44.2652 12.6612L44.2641 12.6635L44.5312 12.8ZM44.5312 17.02L44.2617 17.1519L44.264 17.1564L44.5312 17.02ZM45.8312 18.5L45.6662 18.7506L45.6706 18.7534L45.8312 18.5ZM49.5912 18.5L49.7547 18.7515L49.7562 18.7506L49.5912 18.5ZM50.8912 17.02L51.1584 17.1564L50.8912 17.02ZM49.5912 11.36L49.4233 11.6088L49.4306 11.6134L49.5912 11.36ZM47.8312 9.7V10C48.6853 10 49.4271 10.2127 50.067 10.6311L50.2312 10.38L50.3954 10.1289C49.6487 9.64066 48.7905 9.4 47.8312 9.4V9.7ZM50.2312 10.38L50.0727 10.6347C50.731 11.0446 51.2554 11.6168 51.6456 12.3595L51.9112 12.22L52.1768 12.0805C51.7404 11.2499 51.1448 10.5954 50.3898 10.1253L50.2312 10.38ZM51.9112 12.22L51.6466 12.3614C52.0333 13.0849 52.2312 13.9283 52.2312 14.9H52.5312H52.8312C52.8312 13.8451 52.6158 12.9018 52.1758 12.0786L51.9112 12.22ZM52.5312 14.9H52.2312C52.2312 15.8716 52.0334 16.7225 51.6456 17.4605L51.9112 17.6L52.1768 17.7395C52.6157 16.9041 52.8312 15.9551 52.8312 14.9H52.5312ZM51.9112 17.6L51.6456 17.4605C51.255 18.2039 50.7296 18.7839 50.0692 19.2075L50.2312 19.46L50.3932 19.7125C51.1462 19.2295 51.7408 18.5694 52.1768 17.7395L51.9112 17.6ZM50.2312 19.46L50.0692 19.2075C49.4133 19.6283 48.6767 19.84 47.8512 19.84V20.14V20.44C48.7857 20.44 49.6358 20.1984 50.3932 19.7125L50.2312 19.46ZM47.8512 20.14V19.84C47.4136 19.84 46.9971 19.7775 46.6007 19.6537L46.5112 19.94L46.4217 20.2263C46.8786 20.3691 47.3555 20.44 47.8512 20.44V20.14ZM46.5112 19.94L46.6115 19.6573C46.2222 19.5191 45.866 19.3377 45.542 19.1133L45.3712 19.36L45.2005 19.6067C45.5698 19.8623 45.9736 20.0676 46.4109 20.2227L46.5112 19.94ZM45.3712 19.36L45.542 19.1133C45.2173 18.8886 44.9308 18.6269 44.6817 18.3279L44.4512 18.52L44.2207 18.7121C44.505 19.0531 44.8318 19.3514 45.2005 19.6067L45.3712 19.36ZM44.4512 18.52L44.6855 18.3326C44.4361 18.0209 44.2374 17.6853 44.0884 17.3253L43.8112 17.44L43.534 17.5547C43.705 17.968 43.933 18.3524 44.217 18.7074L44.4512 18.52ZM43.8112 17.44L43.9869 17.6832L44.3469 17.4232L44.1712 17.18L43.9956 16.9368L43.6356 17.1968L43.8112 17.44ZM44.1712 17.18H43.8712V23.4H44.1712H44.4712V17.18H44.1712ZM44.1712 23.4H43.8712C43.8712 23.4752 43.8466 23.5403 43.7791 23.6079L43.9912 23.82L44.2034 24.0321C44.3758 23.8597 44.4712 23.6448 44.4712 23.4H44.1712ZM43.9912 23.82L43.767 23.6207C43.7222 23.6711 43.6665 23.7 43.5712 23.7V24V24.3C43.8226 24.3 44.0469 24.2089 44.2154 24.0193L43.9912 23.82ZM43.5712 24V23.7C43.4755 23.7 43.4058 23.6703 43.3433 23.6079L43.1312 23.82L42.9191 24.0321C43.0967 24.2097 43.3202 24.3 43.5712 24.3V24ZM43.1312 23.82L43.3554 23.6207C43.2974 23.5554 43.2712 23.4862 43.2712 23.4H42.9712H42.6712C42.6712 23.6338 42.7517 23.8446 42.907 24.0193L43.1312 23.82ZM42.9712 23.4H43.2712V10.36H42.9712H42.6712V23.4H42.9712ZM42.9712 10.36H43.2712C43.2712 10.2538 43.3016 10.1798 43.3554 10.1193L43.1312 9.92L42.907 9.72069C42.7475 9.90017 42.6712 10.1195 42.6712 10.36H42.9712ZM43.1312 9.92L43.3554 10.1193C43.3957 10.074 43.4549 10.04 43.5712 10.04V9.74V9.44C43.3142 9.44 43.0801 9.526 42.907 9.72069L43.1312 9.92ZM43.5712 9.74V10.04C43.6665 10.04 43.7222 10.0689 43.767 10.1193L43.9912 9.92L44.2154 9.72069C44.0469 9.53112 43.8226 9.44 43.5712 9.44V9.74ZM43.9912 9.92L43.7791 10.1321C43.8415 10.1945 43.8712 10.2643 43.8712 10.36H44.1712H44.4712C44.4712 10.109 44.3809 9.88546 44.2034 9.70787L43.9912 9.92ZM44.1712 10.36H43.8712V12.52H44.1712H44.4712V10.36H44.1712ZM44.1712 12.52L44.3201 12.2595L44.0401 12.0995L43.8912 12.36L43.7424 12.6205L44.0224 12.7805L44.1712 12.52ZM43.8912 12.36L44.1767 12.4521C44.2998 12.0707 44.4767 11.7363 44.7064 11.4462L44.4712 11.26L44.236 11.0738C43.959 11.4237 43.7493 11.8226 43.6057 12.2679L43.8912 12.36ZM44.4712 11.26L44.7055 11.4474C44.9529 11.1381 45.2361 10.8798 45.5554 10.6711L45.3912 10.42L45.227 10.1689C44.853 10.4135 44.5229 10.7152 44.237 11.0726L44.4712 11.26ZM45.3912 10.42L45.562 10.6667C45.8815 10.4455 46.232 10.2793 46.6149 10.1681L46.5312 9.88L46.4476 9.5919C46.0038 9.72073 45.5943 9.91453 45.2205 10.1733L45.3912 10.42ZM46.5312 9.88L46.6149 10.1681C46.9996 10.0564 47.4047 10 47.8312 10V9.7V9.4C47.3511 9.4 46.8895 9.46359 46.4476 9.5919L46.5312 9.88ZM47.7312 10.82V10.52C46.9587 10.52 46.2667 10.714 45.6662 11.1094L45.8312 11.36L45.9962 11.6106C46.489 11.286 47.0638 11.12 47.7312 11.12V10.82ZM45.8312 11.36L45.6706 11.1066C45.0762 11.4835 44.6079 12.0044 44.2652 12.6612L44.5312 12.8L44.7972 12.9388C45.0945 12.3689 45.4929 11.9298 45.9919 11.6134L45.8312 11.36ZM44.5312 12.8L44.2641 12.6635C43.9321 13.313 43.7712 14.0614 43.7712 14.9H44.0712H44.3712C44.3712 14.1386 44.517 13.487 44.7983 12.9365L44.5312 12.8ZM44.0712 14.9H43.7712C43.7712 15.7265 43.9326 16.4792 44.2618 17.1519L44.5312 17.02L44.8007 16.8881C44.5165 16.3075 44.3712 15.6468 44.3712 14.9H44.0712ZM44.5312 17.02L44.264 17.1564C44.6058 17.8258 45.073 18.3599 45.6662 18.7506L45.8312 18.5L45.9962 18.2494C45.4961 17.9201 45.0966 17.4676 44.7984 16.8836L44.5312 17.02ZM45.8312 18.5L45.6706 18.7534C46.2706 19.1338 46.9609 19.32 47.7312 19.32V19.02V18.72C47.0615 18.72 46.4852 18.5595 45.9919 18.2466L45.8312 18.5ZM47.7312 19.02V19.32C48.4893 19.32 49.1674 19.1333 49.7547 18.7515L49.5912 18.5L49.4277 18.2485C48.9484 18.5601 48.3865 18.72 47.7312 18.72V19.02ZM49.5912 18.5L49.7562 18.7506C50.3495 18.3599 50.8166 17.8258 51.1584 17.1564L50.8912 17.02L50.624 16.8836C50.3258 17.4676 49.9263 17.9201 49.4262 18.2494L49.5912 18.5ZM50.8912 17.02L51.1584 17.1564C51.5024 16.4827 51.6712 15.7284 51.6712 14.9H51.3712H51.0712C51.0712 15.6449 50.92 16.3039 50.624 16.8836L50.8912 17.02ZM51.3712 14.9H51.6712C51.6712 14.0717 51.5024 13.323 51.1572 12.6612L50.8912 12.8L50.6252 12.9388C50.92 13.5037 51.0712 14.155 51.0712 14.9H51.3712ZM50.8912 12.8L51.1572 12.6612C50.8145 12.0044 50.3462 11.4835 49.7519 11.1066L49.5912 11.36L49.4306 11.6134C49.9296 11.9298 50.3279 12.3689 50.6252 12.9388L50.8912 12.8ZM49.5912 11.36L49.7591 11.1113C49.1713 10.7146 48.4916 10.52 47.7312 10.52V10.82V11.12C48.3842 11.12 48.9445 11.2854 49.4234 11.6087L49.5912 11.36ZM56.2001 19.54L56.3466 19.2782L56.2001 19.54ZM54.3601 17.7L54.0983 17.8464L54.3601 17.7ZM54.3601 12.04L54.0991 11.8921L54.0973 11.8954L54.3601 12.04ZM56.1001 10.2L56.2552 10.4568L56.2566 10.456L56.1001 10.2ZM60.0801 9.86L59.971 10.1396L59.9792 10.1425L60.0801 9.86ZM61.5601 10.78L61.3513 10.9956L61.3583 11.002L61.5601 10.78ZM62.6001 12.26L62.3247 12.379L62.327 12.3841L62.6001 12.26ZM63.0401 14.3L63.3391 14.3249L63.3406 14.3073L63.3399 14.2897L63.0401 14.3ZM62.8401 14.72L63.0394 14.9442L63.046 14.9384L63.0523 14.9321L62.8401 14.72ZM54.4001 14.88L54.1073 14.9451L54.1595 15.18H54.4001V14.88ZM54.1601 13.8V13.5H53.7861L53.8673 13.8651L54.1601 13.8ZM62.0401 13.8L62.2436 14.0204L62.8074 13.5H62.0401V13.8ZM61.7801 14.04H61.4801V14.7252L61.9836 14.2604L61.7801 14.04ZM61.7801 13.64H62.0801V13.6273L62.079 13.6146L61.7801 13.64ZM61.1801 12.04L60.9445 12.2257L61.1801 12.04ZM59.9201 11.04L59.7949 11.3126L59.9201 11.04ZM57.1401 10.94L57.0348 10.6591L57.0318 10.6602L57.1401 10.94ZM56.0001 11.7L55.788 11.4879L56.0001 11.7ZM55.1801 13L55.4577 13.1139L55.4587 13.1114L55.1801 13ZM55.3401 17L55.6085 16.8658L55.3401 17ZM56.7201 18.52L56.5616 18.7747L56.5641 18.7763L56.7201 18.52ZM60.1601 18.88L60.0592 18.5975L60.1601 18.88ZM61.1401 18.36L61.322 18.5987L61.3289 18.5932L61.1401 18.36ZM61.8401 17.66L61.6502 17.4278L61.624 17.4492L61.6033 17.4758L61.8401 17.66ZM62.6201 17.64L62.3944 17.8376L62.4009 17.8451L62.408 17.8521L62.6201 17.64ZM62.5801 18.42L62.3794 18.197L62.3634 18.2114L62.3497 18.2279L62.5801 18.42ZM61.0201 19.68L61.163 19.9438L61.1672 19.9415L61.0201 19.68ZM58.9201 20.2V19.9C57.9375 19.9 57.0826 19.6898 56.3466 19.2782L56.2001 19.54L56.0537 19.8018C56.891 20.2702 57.8494 20.5 58.9201 20.5V20.2ZM56.2001 19.54L56.3466 19.2782C55.6083 18.8652 55.0349 18.2918 54.622 17.5536L54.3601 17.7L54.0983 17.8464C54.5654 18.6815 55.2186 19.3348 56.0537 19.8018L56.2001 19.54ZM54.3601 17.7L54.622 17.5536C54.2109 16.8187 54.0001 15.9508 54.0001 14.94H53.7001H53.4001C53.4001 16.0359 53.6293 17.008 54.0983 17.8464L54.3601 17.7ZM53.7001 14.94H54.0001C54.0001 13.8452 54.2126 12.9308 54.623 12.1846L54.3601 12.04L54.0973 11.8954C53.6277 12.7492 53.4001 13.7681 53.4001 14.94H53.7001ZM54.3601 12.04L54.6211 12.1879C55.052 11.4275 55.5975 10.8539 56.2552 10.4568L56.1001 10.2L55.9451 9.94318C55.1895 10.3994 54.5749 11.0525 54.0991 11.8921L54.3601 12.04ZM56.1001 10.2L56.2566 10.456C56.9321 10.0431 57.6384 9.84 58.3801 9.84V9.54V9.24C57.5218 9.24 56.7081 9.47688 55.9437 9.94402L56.1001 10.2ZM58.3801 9.54V9.84C58.9295 9.84 59.4591 9.9397 59.9711 10.1395L60.0801 9.86L60.1892 9.58053C59.6078 9.35363 59.0041 9.24 58.3801 9.24V9.54ZM60.0801 9.86L59.9792 10.1425C60.4989 10.3281 60.9555 10.612 61.3514 10.9955L61.5601 10.78L61.7689 10.5645C61.3114 10.1214 60.7813 9.79186 60.181 9.57748L60.0801 9.86ZM61.5601 10.78L61.3583 11.002C61.7644 11.3712 62.087 11.8285 62.3247 12.3789L62.6001 12.26L62.8755 12.1411C62.6066 11.5182 62.2358 10.9888 61.7619 10.558L61.5601 10.78ZM62.6001 12.26L62.327 12.3841C62.5745 12.9286 62.7147 13.5686 62.7403 14.3103L63.0401 14.3L63.3399 14.2897C63.3122 13.4847 63.1591 12.7648 62.8732 12.1359L62.6001 12.26ZM63.0401 14.3L62.7412 14.2751C62.7341 14.3601 62.7009 14.4349 62.628 14.5079L62.8401 14.72L63.0523 14.9321C63.2193 14.7651 63.3195 14.5599 63.3391 14.3249L63.0401 14.3ZM62.8401 14.72L62.6408 14.4958C62.5755 14.5538 62.5064 14.58 62.4201 14.58V14.88V15.18C62.6539 15.18 62.8647 15.0995 63.0394 14.9442L62.8401 14.72ZM62.4201 14.88V14.58H54.4001V14.88V15.18H62.4201V14.88ZM54.4001 14.88L54.693 14.8149L54.453 13.7349L54.1601 13.8L53.8673 13.8651L54.1073 14.9451L54.4001 14.88ZM54.1601 13.8V14.1H62.0401V13.8V13.5H54.1601V13.8ZM62.0401 13.8L61.8366 13.5796L61.5766 13.8196L61.7801 14.04L61.9836 14.2604L62.2436 14.0204L62.0401 13.8ZM61.7801 14.04H62.0801V13.64H61.7801H61.4801V14.04H61.7801ZM61.7801 13.64L62.079 13.6146C62.0214 12.9369 61.8031 12.3459 61.4158 11.8543L61.1801 12.04L60.9445 12.2257C61.2505 12.6141 61.4322 13.0898 61.4812 13.6654L61.7801 13.64ZM61.1801 12.04L61.4158 11.8543C61.0407 11.3783 60.5833 11.0145 60.0454 10.7674L59.9201 11.04L59.7949 11.3126C60.2436 11.5188 60.6262 11.8217 60.9445 12.2257L61.1801 12.04ZM59.9201 11.04L60.0454 10.7674C59.5135 10.523 58.9575 10.4 58.3801 10.4V10.7V11C58.8694 11 59.3401 11.1037 59.7949 11.3126L59.9201 11.04ZM58.3801 10.7V10.4C57.9395 10.4 57.4905 10.4882 57.0348 10.6591L57.1401 10.94L57.2455 11.2209C57.6431 11.0718 58.0207 11 58.3801 11V10.7ZM57.1401 10.94L57.0318 10.6602C56.5756 10.8368 56.161 11.1148 55.788 11.4879L56.0001 11.7L56.2123 11.9121C56.5325 11.5918 56.878 11.3632 57.2484 11.2198L57.1401 10.94ZM56.0001 11.7L55.788 11.4879C55.4204 11.8555 55.1268 12.3256 54.9016 12.8886L55.1801 13L55.4587 13.1114C55.6601 12.6078 55.9132 12.2112 56.2123 11.9121L56.0001 11.7ZM55.1801 13L54.9026 12.8861C54.6709 13.4509 54.5601 14.1115 54.5601 14.86H54.8601H55.1601C55.1601 14.1685 55.2627 13.5891 55.4577 13.1139L55.1801 13ZM54.8601 14.86H54.5601C54.5601 15.6885 54.729 16.4485 55.0718 17.1342L55.3401 17L55.6085 16.8658C55.3113 16.2715 55.1601 15.6048 55.1601 14.86H54.8601ZM55.3401 17L55.0718 17.1342C55.4162 17.8231 55.914 18.3717 56.5616 18.7747L56.7201 18.52L56.8786 18.2653C56.3263 17.9216 55.904 17.4569 55.6085 16.8658L55.3401 17ZM56.7201 18.52L56.5641 18.7763C57.232 19.1828 58.0146 19.38 58.9001 19.38V19.08V18.78C58.1057 18.78 57.435 18.6039 56.8761 18.2637L56.7201 18.52ZM58.9001 19.08V19.38C59.3952 19.38 59.8501 19.3093 60.261 19.1625L60.1601 18.88L60.0592 18.5975C59.7234 18.7174 59.3384 18.78 58.9001 18.78V19.08ZM60.1601 18.88L60.261 19.1625C60.6598 19.0201 61.0145 18.8329 61.3219 18.5986L61.1401 18.36L60.9583 18.1214C60.7057 18.3138 60.4071 18.4732 60.0592 18.5975L60.1601 18.88ZM61.1401 18.36L61.3289 18.5932C61.6235 18.3546 61.8739 18.1053 62.0769 17.8442L61.8401 17.66L61.6033 17.4758C61.433 17.6947 61.2167 17.912 60.9514 18.1268L61.1401 18.36ZM61.8401 17.66L62.0301 17.8922C62.139 17.803 62.2208 17.78 62.2801 17.78V17.48V17.18C62.0461 17.18 61.8345 17.277 61.6502 17.4278L61.8401 17.66ZM62.2801 17.48V17.78C62.321 17.78 62.3539 17.7913 62.3944 17.8376L62.6201 17.64L62.8459 17.4424C62.6997 17.2753 62.506 17.18 62.2801 17.18V17.48ZM62.6201 17.64L62.408 17.8521C62.4665 17.9106 62.4801 17.9569 62.4801 18H62.7801H63.0801C63.0801 17.7764 62.9871 17.5827 62.8323 17.4279L62.6201 17.64ZM62.7801 18H62.4801C62.4801 18.0641 62.4581 18.1262 62.3794 18.197L62.5801 18.42L62.7808 18.643C62.9688 18.4738 63.0801 18.2559 63.0801 18H62.7801ZM62.5801 18.42L62.3497 18.2279C61.9767 18.6755 61.4867 19.0733 60.873 19.4185L61.0201 19.68L61.1672 19.9415C61.8335 19.5667 62.3835 19.1245 62.8106 18.6121L62.5801 18.42ZM61.0201 19.68L60.8772 19.4162C60.2831 19.738 59.6325 19.9 58.9201 19.9V20.2V20.5C59.7277 20.5 60.4772 20.3153 61.163 19.9438L61.0201 19.68ZM64.9687 10.02L64.7566 9.80787L64.7504 9.8141L64.7445 9.82069L64.9687 10.02ZM65.8287 10.02L65.6045 10.2193L65.6104 10.2259L65.6166 10.2321L65.8287 10.02ZM66.0087 13.44L66.0676 13.7342L66.3087 13.6859V13.44H66.0087ZM65.7087 13.5L65.4098 13.4744L65.3757 13.8725L65.7676 13.7942L65.7087 13.5ZM66.0487 12.12L65.7729 12.0018L65.7713 12.0058L66.0487 12.12ZM66.8487 10.84L66.6215 10.6441L66.8487 10.84ZM68.0287 9.9L67.8915 9.63319L67.8884 9.63486L68.0287 9.9ZM70.2887 9.7L70.161 9.97145L70.1677 9.97459L70.1745 9.9774L70.2887 9.7ZM69.6887 10.7L69.5545 10.9685L69.5646 10.9731L69.6887 10.7ZM68.0287 10.94L68.1776 11.2006L68.1844 11.1964L68.0287 10.94ZM66.2687 13.08L65.9901 12.9686L65.9885 12.9729L66.2687 13.08ZM65.8287 19.82L65.6166 19.6079L65.8287 19.82ZM65.4087 20V19.7C65.2924 19.7 65.2332 19.666 65.1929 19.6207L64.9687 19.82L64.7445 20.0193C64.9176 20.214 65.1517 20.3 65.4087 20.3V20ZM64.9687 19.82L65.1929 19.6207C65.1349 19.5554 65.1087 19.4862 65.1087 19.4H64.8087H64.5087C64.5087 19.6338 64.5892 19.8446 64.7445 20.0193L64.9687 19.82ZM64.8087 19.4H65.1087V10.44H64.8087H64.5087V19.4H64.8087ZM64.8087 10.44H65.1087C65.1087 10.3538 65.1349 10.2846 65.1929 10.2193L64.9687 10.02L64.7445 9.82069C64.5892 9.9954 64.5087 10.2062 64.5087 10.44H64.8087ZM64.9687 10.02L65.1808 10.2321C65.2433 10.1697 65.313 10.14 65.4087 10.14V9.84V9.54C65.1577 9.54 64.9342 9.63027 64.7566 9.80787L64.9687 10.02ZM65.4087 9.84V10.14C65.504 10.14 65.5597 10.1689 65.6045 10.2193L65.8287 10.02L66.0529 9.82069C65.8844 9.63112 65.6601 9.54 65.4087 9.54V9.84ZM65.8287 10.02L65.6166 10.2321C65.6841 10.2997 65.7087 10.3648 65.7087 10.44H66.0087H66.3087C66.3087 10.1952 66.2133 9.98034 66.0408 9.80787L65.8287 10.02ZM66.0087 10.44H65.7087V13.44H66.0087H66.3087V10.44H66.0087ZM66.0087 13.44L65.9499 13.1458L65.6499 13.2058L65.7087 13.5L65.7676 13.7942L66.0676 13.7342L66.0087 13.44ZM65.7087 13.5L66.0076 13.5256C66.0449 13.0908 66.1505 12.6606 66.3261 12.2342L66.0487 12.12L65.7713 12.0058C65.5736 12.486 65.4525 12.9759 65.4098 13.4744L65.7087 13.5ZM66.0487 12.12L66.3245 12.2382C66.5123 11.7999 66.7626 11.3994 67.0759 11.0359L66.8487 10.84L66.6215 10.6441C66.2682 11.0539 65.9851 11.5068 65.773 12.0018L66.0487 12.12ZM66.8487 10.84L67.0759 11.0359C67.3848 10.6776 67.7486 10.3877 68.1691 10.1651L68.0287 9.9L67.8884 9.63486C67.4022 9.89225 66.9793 10.229 66.6215 10.6441L66.8487 10.84ZM68.0287 9.9L68.1659 10.1668C68.5863 9.95058 69.0586 9.84 69.5887 9.84V9.54V9.24C68.9722 9.24 68.4045 9.36942 67.8915 9.63321L68.0287 9.9ZM69.5887 9.54V9.84C69.7826 9.84 69.9725 9.88274 70.161 9.97145L70.2887 9.7L70.4165 9.42855C70.1516 9.30393 69.8748 9.24 69.5887 9.24V9.54ZM70.2887 9.7L70.1745 9.9774C70.2484 10.0078 70.2824 10.0401 70.2989 10.0634C70.3143 10.0851 70.3287 10.1188 70.3287 10.18H70.6287H70.9287C70.9287 10.0146 70.8865 9.85489 70.7885 9.71659C70.6917 9.57994 70.5557 9.48549 70.4029 9.4226L70.2887 9.7ZM70.6287 10.18H70.3287C70.3287 10.3273 70.2905 10.394 70.2566 10.4279L70.4687 10.64L70.6808 10.8521C70.8603 10.6727 70.9287 10.4327 70.9287 10.18H70.6287ZM70.4687 10.64L70.2566 10.4279C70.2044 10.4801 70.1533 10.5 70.0887 10.5V10.8V11.1C70.3175 11.1 70.5197 11.0133 70.6808 10.8521L70.4687 10.64ZM70.0887 10.8V10.5C70.0236 10.5 69.9332 10.4816 69.8129 10.4269L69.6887 10.7L69.5646 10.9731C69.7376 11.0517 69.9139 11.1 70.0887 11.1V10.8ZM69.6887 10.7L69.8229 10.4317C69.6318 10.3362 69.3999 10.3 69.1487 10.3V10.6V10.9C69.3509 10.9 69.4789 10.9305 69.5546 10.9683L69.6887 10.7ZM69.1487 10.6V10.3C68.7117 10.3 68.2852 10.4333 67.873 10.6836L68.0287 10.94L68.1844 11.1964C68.5189 10.9934 68.839 10.9 69.1487 10.9V10.6ZM68.0287 10.94L67.8799 10.6795C67.4712 10.9131 67.1039 11.2315 66.7769 11.6296L67.0087 11.82L67.2405 12.0104C67.5269 11.6618 67.8396 11.3936 68.1776 11.2005L68.0287 10.94ZM67.0087 11.82L66.7769 11.6296C66.4499 12.0276 66.1878 12.4745 65.9902 12.9686L66.2687 13.08L66.5473 13.1914C66.723 12.7522 66.9542 12.359 67.2405 12.0104L67.0087 11.82ZM66.2687 13.08L65.9885 12.9729C65.8026 13.459 65.7087 13.9553 65.7087 14.46H66.0087H66.3087C66.3087 14.0314 66.3881 13.6077 66.5489 13.1871L66.2687 13.08ZM66.0087 14.46H65.7087V19.4H66.0087H66.3087V14.46H66.0087ZM66.0087 19.4H65.7087C65.7087 19.4752 65.6841 19.5403 65.6166 19.6079L65.8287 19.82L66.0408 20.0321C66.2133 19.8597 66.3087 19.6448 66.3087 19.4H66.0087ZM65.8287 19.82L65.6166 19.6079C65.5491 19.6754 65.484 19.7 65.4087 19.7V20V20.3C65.6535 20.3 65.8684 20.2046 66.0408 20.0321L65.8287 19.82Z" fill="url(#paint1_linear_41_675)" mask="url(#path-1-outside-1_41_675)" />
	<defs>
		<linearGradient id="paint0_linear_41_675" x1="0.255279" y1="13" x2="70.1334" y2="16.5779" gradientUnits="userSpaceOnUse">
			<stop stop-color="#364153" />
			<stop offset="1" stop-color="#364153" stop-opacity="0.6" />
		</linearGradient>
		<linearGradient id="paint1_linear_41_675" x1="0.255279" y1="13" x2="70.1334" y2="16.5779" gradientUnits="userSpaceOnUse">
			<stop stop-color="#364153" />
			<stop offset="1" stop-color="#364153" stop-opacity="0.6" />
		</linearGradient>
	</defs>
</svg>
