<svg width="21" height="20" viewBox="0 0 21 20" fill="none" xmlns="http://www.w3.org/2000/svg">
	<path d="M12.305 2.6572C11.114 2.41317 9.88594 2.41317 8.69498 2.6572C8.32513 2.73299 8.04034 3.02904 7.97895 3.40155L7.93376 3.67571C7.56187 5.93225 7.56187 8.23446 7.93376 10.491L7.97895 10.7652C8.04034 11.1377 8.32513 11.4337 8.69498 11.5095C9.88594 11.7535 11.114 11.7535 12.305 11.5095C12.6748 11.4337 12.9596 11.1377 13.021 10.7652L13.0662 10.491C13.4381 8.23445 13.4381 5.93225 13.0662 3.67571L13.021 3.40155C12.9596 3.02904 12.6748 2.73299 12.305 2.6572Z" fill="white" />
	<path d="M4.57896 8.54787C4.92072 8.49944 5.23703 8.73724 5.28546 9.079L5.66089 11.7284C5.76232 12.4442 6.32975 13.0039 7.0469 13.0955C9.33964 13.3884 11.6603 13.3884 13.9531 13.0955C14.6702 13.0039 15.2376 12.4442 15.3391 11.7284L15.7145 9.079C15.7629 8.73724 16.0792 8.49944 16.421 8.54787C16.7628 8.5963 17.0006 8.91261 16.9521 9.25438L16.5767 11.9038C16.3963 13.177 15.387 14.1725 14.1114 14.3355C13.1196 14.4622 12.1227 14.5365 11.125 14.5583V17.9167C11.125 18.2619 10.8452 18.5417 10.5 18.5417C10.1548 18.5417 9.875 18.2619 9.875 17.9167V14.5583C8.87727 14.5365 7.88039 14.4622 6.88852 14.3355C5.61294 14.1725 4.60367 13.177 4.42325 11.9038L4.04783 9.25438C3.9994 8.91261 4.23719 8.5963 4.57896 8.54787Z" fill="white" />
</svg>
