<svg width="21" height="20" viewBox="0 0 21 20" fill="none" xmlns="http://www.w3.org/2000/svg">
	<path fill-rule="evenodd" clip-rule="evenodd" d="M8.61177 1.53275C9.85791 1.27741 11.1429 1.27741 12.389 1.53275C12.928 1.64319 13.3431 2.07464 13.4326 2.61753L13.4777 2.89169C13.857 5.1931 13.857 7.54107 13.4777 9.84248L13.4326 10.1166C13.3431 10.6595 12.928 11.091 12.389 11.2014C11.1429 11.4568 9.85791 11.4568 8.61177 11.2014C8.07277 11.091 7.65772 10.6595 7.56825 10.1166L7.52307 9.84248C7.14379 7.54107 7.14379 5.1931 7.52307 2.89169L7.56825 2.61753C7.65772 2.07465 8.07276 1.64319 8.61177 1.53275ZM12.1381 2.75731C11.0575 2.53589 9.94327 2.53589 8.86269 2.75731C8.83114 2.76377 8.80685 2.78902 8.80162 2.82079L8.75643 3.09495C8.39933 5.26176 8.39933 7.47241 8.75643 9.63922L8.80162 9.91338C8.80685 9.94515 8.83114 9.9704 8.86269 9.97686C9.94327 10.1983 11.0575 10.1983 12.1381 9.97686C12.1697 9.9704 12.194 9.94515 12.1992 9.91338L12.2444 9.63922C12.6015 7.47241 12.6015 5.26176 12.2444 3.09495L12.1992 2.82079C12.194 2.78902 12.1697 2.76377 12.1381 2.75731Z" fill="#364153" />
	<path d="M4.57938 8.66494C4.92115 8.61651 5.23746 8.8543 5.28589 9.19607L5.66131 11.8455C5.76275 12.5613 6.33018 13.121 7.04733 13.2126C9.34007 13.5055 11.6607 13.5055 13.9535 13.2126C14.6706 13.121 15.2381 12.5613 15.3395 11.8455L15.7149 9.19607C15.7633 8.8543 16.0797 8.61651 16.4214 8.66494C16.7632 8.71336 17.001 9.02968 16.9526 9.37144L16.5771 12.0209C16.3967 13.2941 15.3874 14.2896 14.1119 14.4525C13.12 14.5792 12.1231 14.6535 11.1254 14.6754V18.0338C11.1254 18.3789 10.8456 18.6588 10.5004 18.6588C10.1552 18.6588 9.87543 18.3789 9.87543 18.0338V14.6754C8.87769 14.6535 7.88082 14.5792 6.88895 14.4525C5.61337 14.2896 4.60409 13.2941 4.42368 12.0209L4.04825 9.37144C3.99982 9.02968 4.23762 8.71336 4.57938 8.66494Z" fill="#364153" />
</svg>
