<svg width="20" height="20" viewBox="0 0 20 20" fill="none" xmlns="http://www.w3.org/2000/svg">
	<path d="M8.78454 16.0558C9.17841 12.0282 9.17841 7.97185 8.78454 3.94428C8.74911 3.58201 8.50066 3.27695 8.15728 3.16548C6.78818 2.72104 5.2947 2.72104 3.9256 3.16548C3.58221 3.27695 3.33376 3.58201 3.29833 3.94428C2.90446 7.97184 2.90446 12.0282 3.29833 16.0558C3.33376 16.4181 3.58221 16.7231 3.9256 16.8346C5.2947 17.279 6.78818 17.279 8.15728 16.8346C8.50066 16.7231 8.74911 16.4181 8.78454 16.0558Z" fill="white" />
	<path d="M16.7012 16.0558C17.0951 12.0282 17.0951 7.97185 16.7012 3.94428C16.6658 3.58201 16.4173 3.27695 16.0739 3.16548C14.7048 2.72104 13.2114 2.72104 11.8423 3.16548C11.4989 3.27695 11.2504 3.58201 11.215 3.94428C10.8211 7.97184 10.8211 12.0282 11.215 16.0558C11.2504 16.4181 11.4989 16.7231 11.8423 16.8346C13.2114 17.279 14.7048 17.279 16.0739 16.8346C16.4173 16.7231 16.6658 16.4181 16.7012 16.0558Z" fill="white" />
</svg>
