<svg width="21" height="20" viewBox="0 0 21 20" fill="none" xmlns="http://www.w3.org/2000/svg">
	<path d="M8.80863 4.64748L9.31051 6.04123C9.86801 7.58811 11.0861 8.80623 12.633 9.36373L14.0268 9.86561C14.1524 9.91123 14.1524 10.0894 14.0268 10.1344L12.633 10.6362C11.0861 11.1937 9.86801 12.4119 9.31051 13.9587L8.80863 15.3525C8.76301 15.4781 8.58488 15.4781 8.53988 15.3525L8.03801 13.9587C7.48051 12.4119 6.26238 11.1937 4.71551 10.6362L3.32176 10.1344C3.19613 10.0887 3.19613 9.91061 3.32176 9.86561L4.71551 9.36373C6.26238 8.80623 7.48051 7.58811 8.03801 6.04123L8.53988 4.64748C8.58488 4.52123 8.76301 4.52123 8.80863 4.64748Z" fill="white" />
	<path d="M15.0824 1.2981L15.3368 2.00372C15.6193 2.78685 16.2362 3.40372 17.0193 3.68622L17.7249 3.9406C17.7887 3.96372 17.7887 4.05372 17.7249 4.07685L17.0193 4.33122C16.2362 4.61372 15.6193 5.2306 15.3368 6.01372L15.0824 6.71935C15.0593 6.7831 14.9693 6.7831 14.9462 6.71935L14.6918 6.01372C14.4093 5.2306 13.7924 4.61372 13.0093 4.33122L12.3037 4.07685C12.2399 4.05372 12.2399 3.96372 12.3037 3.9406L13.0093 3.68622C13.7924 3.40372 14.4093 2.78685 14.6918 2.00372L14.9462 1.2981C14.9693 1.23372 15.0599 1.23372 15.0824 1.2981Z" fill="white" />
	<path d="M15.0824 13.2812L15.3368 13.9868C15.6193 14.77 16.2362 15.3868 17.0193 15.6693L17.7249 15.9237C17.7887 15.9468 17.7887 16.0368 17.7249 16.06L17.0193 16.3143C16.2362 16.5968 15.6193 17.2137 15.3368 17.9968L15.0824 18.7025C15.0593 18.7662 14.9693 18.7662 14.9462 18.7025L14.6918 17.9968C14.4093 17.2137 13.7924 16.5968 13.0093 16.3143L12.3037 16.06C12.2399 16.0368 12.2399 15.9468 12.3037 15.9237L13.0093 15.6693C13.7924 15.3868 14.4093 14.77 14.6918 13.9868L14.9462 13.2812C14.9693 13.2175 15.0599 13.2175 15.0824 13.2812Z" fill="white" />
</svg>
