<svg width="25" height="25" viewBox="0 0 25 25" fill="none" xmlns="http://www.w3.org/2000/svg">
	<path d="M24 12.5C24.5523 12.5 25.0042 12.0515 24.96 11.501C24.7901 9.38083 24.0812 7.33306 22.8934 5.55537C21.5199 3.49976 19.5676 1.8976 17.2835 0.951506C14.9995 0.00541042 12.4861 -0.242131 10.0614 0.240184C7.63661 0.722499 5.40932 1.91301 3.66117 3.66117C1.91301 5.40932 0.722499 7.63661 0.240184 10.0614C-0.242131 12.4861 0.00541045 14.9995 0.951506 17.2835C1.8976 19.5676 3.49976 21.5199 5.55537 22.8934C7.33306 24.0812 9.38083 24.7901 11.501 24.96C12.0515 25.0042 12.5 24.5523 12.5 24V23.4207C12.5 22.8684 12.0511 22.4259 11.5017 22.3703C9.8923 22.2075 8.34172 21.653 6.98837 20.7487C5.35693 19.6586 4.08537 18.1092 3.3345 16.2965C2.58363 14.4837 2.38717 12.489 2.76996 10.5646C3.15275 8.64015 4.0976 6.87246 5.48503 5.48503C6.87246 4.0976 8.64015 3.15275 10.5646 2.76996C12.489 2.38717 14.4837 2.58363 16.2965 3.3345C18.1092 4.08537 19.6586 5.35693 20.7487 6.98837C21.653 8.34172 22.2075 9.89231 22.3703 11.5017C22.4259 12.0511 22.8684 12.5 23.4207 12.5H24Z" fill="url(#paint0_linear_27_8714)" />
	<defs>
		<linearGradient id="paint0_linear_27_8714" x1="22.5" y1="9.5" x2="12.5" y2="25" gradientUnits="userSpaceOnUse">
			<stop />
			<stop offset="1" stop-opacity="0.2" />
		</linearGradient>
	</defs>
</svg>
