<svg width="20" height="20" viewBox="0 0 20 20" fill="none" xmlns="http://www.w3.org/2000/svg">
	<path fill-rule="evenodd" clip-rule="evenodd" d="M4.1665 13.5417C4.51168 13.5417 4.7915 13.8215 4.7915 14.1667V15.8333C4.7915 15.9484 4.88478 16.0417 4.99984 16.0417H14.9998C15.1149 16.0417 15.2082 15.9484 15.2082 15.8333V14.1667C15.2082 13.8215 15.488 13.5417 15.8332 13.5417C16.1783 13.5417 16.4582 13.8215 16.4582 14.1667V15.8333C16.4582 16.6388 15.8053 17.2917 14.9998 17.2917H4.99984C4.19442 17.2917 3.5415 16.6388 3.5415 15.8333V14.1667C3.5415 13.8215 3.82133 13.5417 4.1665 13.5417Z" fill="#1E2939" />
	<path fill-rule="evenodd" clip-rule="evenodd" d="M8.94805 13.4394C8.51939 13.4394 8.16182 13.1118 8.12439 12.6848C7.99635 11.2242 7.97377 9.7564 8.05675 8.29285C7.85093 8.28148 7.64519 8.2683 7.43955 8.25331L6.19826 8.16283C5.71967 8.12794 5.45214 7.5943 5.71051 7.18995C6.59555 5.80488 7.73595 4.60077 9.07091 3.64182L9.56822 3.28458C9.82613 3.09931 10.1735 3.09931 10.4314 3.28458L10.9287 3.64182C12.2637 4.60077 13.4041 5.80488 14.2891 7.18995C14.5475 7.5943 14.28 8.12794 13.8014 8.16282L12.5601 8.25331C12.3545 8.2683 12.1487 8.28148 11.9429 8.29285C12.0259 9.7564 12.0033 11.2242 11.8753 12.6848C11.8378 13.1118 11.4803 13.4394 11.0516 13.4394H8.94805Z" fill="#1E2939" />
</svg>
