<svg width="20" height="20" viewBox="0 0 20 20" fill="none" xmlns="http://www.w3.org/2000/svg">
	<path fill-rule="evenodd" clip-rule="evenodd" d="M8.94832 13.856C8.30364 13.856 7.76588 13.3633 7.70958 12.7211C7.59188 11.3784 7.56209 10.0297 7.62031 8.68359C7.55004 8.67889 7.47977 8.67397 7.40952 8.66885L6.16823 8.57837C5.37485 8.52054 4.93135 7.63589 5.35967 6.96557C6.27316 5.53598 7.94752 3.93594 9.3254 2.94616C9.72857 2.65654 10.2716 2.65654 10.6748 2.94616C12.0527 3.93594 13.727 5.53598 14.6405 6.96557C15.0688 7.63589 14.6253 8.52053 13.832 8.57837L12.5907 8.66885C12.5204 8.67397 12.4502 8.67888 12.3799 8.68359C12.4381 10.0297 12.4083 11.3784 12.2906 12.7211C12.2343 13.3633 11.6965 13.856 11.0519 13.856H8.94832ZM8.90132 8.13543C8.80655 9.62478 8.82425 11.1192 8.95428 12.606H11.0459C11.1759 11.1192 11.1936 9.62478 11.0989 8.13543C11.0882 7.96845 11.145 7.80419 11.2565 7.67941C11.3679 7.55462 11.5248 7.47973 11.6919 7.4715C11.9613 7.45823 12.2306 7.44178 12.4998 7.42216L13.4013 7.35644C12.6017 6.1787 11.6004 5.15015 10.4428 4.31861L10.0001 4.00057L9.55736 4.31861C8.39976 5.15015 7.39852 6.1787 6.5989 7.35645L7.5004 7.42216C7.76955 7.44178 8.03888 7.45823 8.30833 7.4715C8.47544 7.47973 8.63227 7.55462 8.74372 7.67941C8.85517 7.80419 8.91194 7.96845 8.90132 8.13543Z" fill="#1E2939" />
	<path d="M4.79175 14.1667C4.79175 13.8215 4.51193 13.5417 4.16675 13.5417C3.82157 13.5417 3.54175 13.8215 3.54175 14.1667V15.8333C3.54175 16.6387 4.19467 17.2917 5.00008 17.2917H15.0001C15.8055 17.2917 16.4584 16.6387 16.4584 15.8333V14.1667C16.4584 13.8215 16.1786 13.5417 15.8334 13.5417C15.4882 13.5417 15.2084 13.8215 15.2084 14.1667V15.8333C15.2084 15.9484 15.1151 16.0417 15.0001 16.0417H5.00008C4.88502 16.0417 4.79175 15.9484 4.79175 15.8333V14.1667Z" fill="#1E2939" />
</svg>
