<svg width="18" height="18" viewBox="0 0 18 18" fill="none" xmlns="http://www.w3.org/2000/svg">
	<path fill-rule="evenodd" clip-rule="evenodd" d="M8.05341 12.4704C7.47321 12.4704 6.98922 12.027 6.93855 11.449C6.83261 10.2406 6.80581 9.02671 6.8582 7.81524C6.79496 7.811 6.73172 7.80658 6.6685 7.80197L5.55133 7.72054C4.83729 7.66849 4.43814 6.87231 4.82363 6.26902C5.64577 4.98239 7.1527 3.54235 8.39278 2.65155C8.75564 2.39089 9.24438 2.39089 9.60724 2.65155C10.8473 3.54235 12.3543 4.98239 13.1764 6.26902C13.5619 6.87231 13.1627 7.66849 12.4487 7.72054L11.3315 7.80197C11.2683 7.80658 11.2051 7.811 11.1418 7.81524C11.1942 9.02671 11.1674 10.2406 11.0615 11.449C11.0108 12.027 10.5268 12.4704 9.94662 12.4704H8.05341ZM8.01111 7.32189C7.92583 8.66231 7.94175 10.0073 8.05878 11.3454H9.94124C10.0583 10.0073 10.0742 8.66231 9.98891 7.32189C9.97935 7.17162 10.0304 7.02378 10.1307 6.91147C10.2311 6.79917 10.3722 6.73176 10.5226 6.72436C10.7651 6.71241 11.0075 6.69761 11.2497 6.67995L12.0611 6.62081C11.3414 5.56083 10.4403 4.63514 9.39848 3.88675L9.00001 3.60052L8.60155 3.88675C7.55971 4.63515 6.65859 5.56083 5.93893 6.62081L6.75029 6.67995C6.99253 6.69761 7.23492 6.71241 7.47742 6.72436C7.62782 6.73176 7.76897 6.79917 7.86928 6.91147C7.96958 7.02378 8.02067 7.17162 8.01111 7.32189Z" fill="white" />
	<path d="M4.3125 12.75C4.3125 12.4393 4.06066 12.1875 3.75 12.1875C3.43934 12.1875 3.1875 12.4393 3.1875 12.75V14.25C3.1875 14.9749 3.77513 15.5625 4.5 15.5625H13.5C14.2249 15.5625 14.8125 14.9749 14.8125 14.25V12.75C14.8125 12.4393 14.5607 12.1875 14.25 12.1875C13.9393 12.1875 13.6875 12.4393 13.6875 12.75V14.25C13.6875 14.3535 13.6036 14.4375 13.5 14.4375H4.5C4.39645 14.4375 4.3125 14.3535 4.3125 14.25V12.75Z" fill="white" />
</svg>
